<svg xmlns="http://www.w3.org/2000/svg" fill="none" viewBox="0 0 298 248">
  <path fill="#000" d="M268.4 246.8V196H280v7.6a16 16 0 0 1 7.4-7.4 13 13 0 0 1 6-1.3 20.5 20.5 0 0 1 4.7.5v11.3c-.6-.3-1.5-.5-2.5-.7-1-.3-2.3-.4-4-.4-2.5 0-4.5.6-6.1 1.6a9.4 9.4 0 0 0-3.4 4.4c-.7 1.7-1 3.6-1 5.6v29.6h-12.6ZM235.8 248c-4.6 0-8.8-1-12.7-2.8-3.8-1.9-6.9-4.8-9.2-8.6a28.5 28.5 0 0 1-3.4-14.7V220c0-5.6 1-10.3 3.2-14 2.3-3.7 5.2-6.5 9-8.3a27 27 0 0 1 12.2-2.8c8 0 14 2 18.1 6.3 4.2 4.2 6.3 10.3 6.3 18.3v5.4h-36c.2 3 .9 5.5 2 7.4 1.2 1.8 2.7 3.2 4.6 4.1 1.8.8 3.8 1.2 6 1.2a15 15 0 0 0 7.3-1.4 8 8 0 0 0 3.5-4.2h11.6c-1 5.3-3.5 9.3-7.6 12-4 2.7-9 4-14.9 4Zm-.5-42.8c-2 0-3.8.4-5.7 1a8.4 8.4 0 0 0-4.4 3.4c-1 1.6-1.7 3.8-1.8 6.5H247c0-3-.6-5.1-1.7-6.7a7.7 7.7 0 0 0-4.1-3.2c-1.7-.6-3.7-1-5.9-1ZM199.4 247.4c-3.8 0-7-.5-9.5-1.5-2.4-1.1-4.2-2.9-5.4-5.4a26.6 26.6 0 0 1-1.7-10.6v-50.2h12.5v48.6c0 3.3.5 5.5 1.4 6.7 1 1.1 2.8 1.7 5.5 1.7h1.8l1.6-.2V247a28.7 28.7 0 0 1-4 .4h-2.2ZM142.4 248c-3.6 0-6.7-.7-9.3-2a14.5 14.5 0 0 1-5.8-5.8c-1.3-2.4-2-5.1-2-8.2 0-5.1 1.5-9 4.5-11.5 3-2.6 7.6-3.9 13.7-3.9h15v-2.4c0-3.3-.7-5.6-2.2-7-1.5-1.3-3.8-2-7-2-3 0-5 .5-6.3 1.6-1.3 1-2 2.1-2.2 3.6h-12.6c.2-3 1-5.6 2.7-7.9a17 17 0 0 1 7.3-5.5c3.2-1.4 7-2.1 11.5-2.1 4.3 0 8 .6 11.3 1.9 3.2 1.3 5.7 3.3 7.5 6.2 1.8 2.8 2.7 6.6 2.7 11.4V234l.1 7.1c.1 2 .3 4 .6 5.8H160l-.5-3.1v-3.4c-1.3 2-3.4 3.9-6.3 5.4a23 23 0 0 1-10.9 2.3Zm4-9.8c2 0 4-.3 5.8-1 1.9-.8 3.4-2 4.6-3.5a9.7 9.7 0 0 0 1.8-6v-2.4h-12.7c-2.5 0-4.4.5-5.8 1.7-1.3 1-2 2.6-2 4.5 0 2 .7 3.7 2.1 4.9 1.4 1.2 3.5 1.8 6.1 1.8ZM94.7 248c-4.6 0-8.8-1-12.7-2.8-3.9-1.9-7-4.8-9.2-8.6a28.5 28.5 0 0 1-3.5-14.7V220c0-5.6 1.1-10.3 3.3-14 2.2-3.7 5.2-6.5 8.9-8.3a27 27 0 0 1 12.2-2.8c8 0 14 2 18.2 6.3 4.1 4.2 6.2 10.3 6.2 18.3v5.4H82.3c0 3 .7 5.5 1.9 7.4 1.2 1.8 2.7 3.2 4.6 4.1 1.8.8 3.8 1.2 5.9 1.2a15 15 0 0 0 7.4-1.4 8 8 0 0 0 3.5-4.2h11.6c-1 5.3-3.6 9.3-7.6 12-4 2.7-9 4-15 4Zm-.5-42.8c-2 0-3.9.4-5.7 1a8.4 8.4 0 0 0-4.4 3.4c-1.1 1.6-1.7 3.8-1.8 6.5h23.6c0-3-.7-5.1-1.7-6.7a7.7 7.7 0 0 0-4.2-3.2c-1.7-.6-3.6-1-5.8-1ZM5.8 246.8v-67h23.3c6.7 0 12.5 1.1 17.3 3.6 4.8 2.4 8.4 6 10.9 10.8a36.8 36.8 0 0 1 3.8 17.6v2c0 7.1-1.3 13.2-3.9 18-2.6 5-6.4 8.8-11.4 11.3-4.9 2.5-10.8 3.7-17.7 3.7H5.8ZM20.1 235h7c3.6 0 6.8-.7 9.6-2 2.9-1.4 5.2-3.6 7-6.7 1.7-3.1 2.6-7.3 2.6-12.5v-2c0-5-.8-8.9-2.4-11.8a14 14 0 0 0-6.6-6.5c-2.7-1.2-5.8-1.9-9.2-1.9h-8V235ZM218.6 158.1c-4.2 0-7.6-.4-10.4-1.2-2.9-.9-5.2-2-7-3.6a15.4 15.4 0 0 1-5.6-11.2h12.6c.4 1.7 1.4 3 3 4.1 1.7 1 4.1 1.6 7.4 1.6 3.7 0 6.3-.5 8-1.6 1.5-1 2.3-2.3 2.3-3.9 0-1.1-.3-2-1-2.8a8 8 0 0 0-3.8-1.9c-1.8-.6-4.3-1.1-7.5-1.7-2.8-.4-5.4-.9-7.8-1.5-2.3-.7-4.3-1.7-6.1-3a13.5 13.5 0 0 1-4.2-4.4 14.5 14.5 0 0 1 1-14.4c1.8-2.3 4.2-4.1 7.4-5.5 3.3-1.4 7.2-2 11.7-2 4.9 0 8.8.7 11.7 2.2 3 1.5 5.2 3.5 6.6 6 1.5 2.4 2.4 5 2.7 7.7H227a7 7 0 0 0-3-4.2 9.8 9.8 0 0 0-5.4-1.4c-3.2 0-5.5.5-7 1.5-1.2 1-2 2.2-2 3.6 0 1.6.8 2.8 2.3 3.6 1.5.8 4.6 1.6 9.3 2.2 2.8.4 5.5 1 7.9 1.7 2.5.7 4.7 1.7 6.5 3a12.9 12.9 0 0 1 6 11.1c0 3.2-1 6-2.6 8.4a16.7 16.7 0 0 1-7.7 5.6c-3.4 1.4-7.6 2-12.7 2ZM180.3 157.6c-4 0-7.2-.6-9.8-1.7-2.5-1.1-4.4-3-5.6-5.4a23.3 23.3 0 0 1-1.7-9.7v-24h-6.8v-10.6h6.8V94.7h12.5v11.5h12.2v10.5h-12.2v22c0 3 .5 5 1.5 6.3 1.1 1.2 3 1.8 6 1.8 1.9 0 3.8 0 5.7-.3v10.6a66.8 66.8 0 0 1-8.6.5ZM120.7 157v-50.8h11.5v7.5a16 16 0 0 1 7.3-7.3 13 13 0 0 1 6-1.4 20.5 20.5 0 0 1 4.7.6v11.2c-.6-.2-1.4-.5-2.5-.7-1-.2-2.2-.3-3.9-.3-2.5 0-4.6.5-6.2 1.6a9.4 9.4 0 0 0-3.3 4.3c-.7 1.7-1 3.6-1 5.7V157h-12.6ZM80.8 158.1c-3.7 0-6.8-.6-9.3-2a14.5 14.5 0 0 1-5.8-5.7c-1.4-2.5-2-5.2-2-8.3 0-5 1.5-9 4.4-11.5 3.1-2.5 7.7-3.8 13.7-3.8H97v-2.4c0-3.3-.7-5.7-2.3-7-1.4-1.4-3.8-2-7-2-2.9 0-5 .5-6.3 1.5-1.2 1-2 2.2-2.2 3.6H66.5c.2-2.9 1.1-5.5 2.8-7.8a17 17 0 0 1 7.3-5.6c3.2-1.4 7-2 11.4-2s8.1.6 11.3 1.8c3.3 1.3 5.8 3.4 7.6 6.3 1.8 2.8 2.7 6.6 2.7 11.4V151l.6 5.9H98.5l-.5-3.2v-3.3c-1.3 2-3.5 3.8-6.3 5.3a23 23 0 0 1-11 2.3Zm3.9-9.7c2 0 4-.4 5.8-1.1 2-.8 3.5-2 4.6-3.4a9.7 9.7 0 0 0 1.8-6v-2.5H84.2c-2.4 0-4.3.6-5.7 1.7-1.4 1.1-2 2.6-2 4.5 0 2 .7 3.7 2 5 1.5 1.2 3.5 1.8 6.2 1.8ZM5.8 157V89.9h25.8c6 0 11 .9 15 2.7 4 1.8 6.9 4.4 8.8 7.7 1.9 3.3 2.8 7.1 2.8 11.6s-1 8.4-2.8 11.7c-2 3.3-4.9 5.8-8.8 7.7-4 1.8-9 2.7-15 2.7H20v23H5.8Zm14.3-35h10c5.1 0 8.7-.8 10.7-2.5 2.1-1.7 3.2-4.3 3.2-7.6 0-3.2-1-5.7-3.2-7.5-2-1.8-5.6-2.6-10.7-2.6h-10V122ZM166.8 67.1V0h12.5v23.3a16.7 16.7 0 0 1 8.4-6.9c2-.8 4.6-1.2 7.5-1.2 6.2 0 10.8 1.6 13.8 5 3 3.3 4.6 8 4.6 14.3v32.6H201V37.5c0-3.8-.8-6.7-2.4-8.6-1.6-2-4.2-3-8-3-2.6 0-4.8.5-6.5 1.6a9.6 9.6 0 0 0-3.6 4.3c-.8 1.8-1.2 3.6-1.2 5.7v29.6h-12.5ZM135.2 68.3c-4.6 0-8.9-1-12.6-2.9-3.8-2-6.8-4.9-9-8.7a29.5 29.5 0 0 1-3.3-14.5v-2c0-5.4 1.2-10 3.5-13.7 2.3-3.7 5.3-6.6 9-8.5 3.8-1.9 8-2.8 12.4-2.8 4.8 0 8.8.8 12.2 2.3a19.3 19.3 0 0 1 10.8 16h-12.8a9.6 9.6 0 0 0-3.2-5.5c-1.5-1.4-3.9-2.1-7-2.1-2.2 0-4.2.5-6 1.5-1.8 1-3.3 2.6-4.4 4.7-1.1 2.1-1.6 4.9-1.6 8.2v1.9c0 3.6.5 6.5 1.5 8.8 1 2.3 2.5 4 4.3 5a12.6 12.6 0 0 0 12.6-.4c1.9-1.3 3.1-3.2 3.8-5.6h12.8A19.4 19.4 0 0 1 146.4 66c-3.3 1.4-7 2.2-11.2 2.2ZM80.2 68.3c-4.6 0-8.8-1-12.7-2.8-3.8-2-6.9-4.8-9.2-8.6A28.5 28.5 0 0 1 55 42.2v-2c0-5.5 1-10.2 3.2-14 2.2-3.6 5.2-6.4 9-8.3a27 27 0 0 1 12.2-2.7c8 0 14 2 18.1 6.3 4.2 4.2 6.2 10.3 6.2 18.3v5.4H67.8c.1 3 .7 5.4 1.9 7.4 1.2 1.8 2.7 3.2 4.6 4 1.8 1 3.8 1.3 6 1.3a15 15 0 0 0 7.3-1.4 8 8 0 0 0 3.5-4.2h11.6c-1 5.3-3.6 9.3-7.6 12-4 2.6-9 4-14.9 4Zm-.5-42.8c-2 0-3.9.3-5.7 1a8.4 8.4 0 0 0-4.4 3.4c-1 1.6-1.7 3.8-1.8 6.4h23.6c0-2.8-.6-5-1.7-6.6a7.7 7.7 0 0 0-4.1-3.2c-1.8-.7-3.7-1-5.9-1ZM21.5 67.1V12H0V0h57.3v11.9H35.8V67H21.5Z"/>
</svg>
