<svg xmlns="http://www.w3.org/2000/svg" fill="none" viewBox="0 0 1472 978">
  <path stroke="#158B58" stroke-miterlimit="10" stroke-width="3" d="m640.2 214 30.3-30.4-30.3-30.4v60.7ZM673.9 186.9l-30.4 30.4h60.8l-30.4-30.4ZM704.3 149.9h-60.8l30.4 30.3 30.4-30.3ZM707.6 153.2l-30.4 30.4 30.4 30.3v-60.7ZM1021.2 97.1v59.6c0 10.5-8.5 19.1-19.1 19.1v39h12.5a26 26 0 0 0 33.3 0h12.5v-39a19.2 19.2 0 0 1-19.2-19.1V97m-10 114.5a17.5 17.5 0 0 1-1.9-35H1031.2l2.3.1.6.1a17.5 17.5 0 0 1-2.9 34.8Z"/>
  <path stroke="#158B58" stroke-miterlimit="10" stroke-width="3" d="M1060.4 100V67.2H1002V100c19.6-4.3 39-4.3 58.4 0Zm-35.8-17.8c0-3.7 3-6.7 6.7-6.6 3.8 0 6.6 3 6.6 6.7 0 3.8-3 6.7-6.8 6.6-3.6-.1-6.5-3-6.5-6.7ZM1060.4 59.1H1002v8.1h58.4v-8ZM1060.4 51H1002v8.1h58.4V51ZM1013.7 194h-11.6M1060.4 194h-11.7M806.3 160.6H801V156h-8.6v4.5h-5.4V156h-8.6v4.5h-5.5V156h-8.6v4.5h-4.5l-1-4-8.3 1.8.9 4.1-3.2 1.6-3.1-3.6-6.5 5.6 3 3.4a26 26 0 0 0-1.8 2.3l-4-1.8-3.4 7.9 3.7 1.6-.6 2.9h-4.2v8.6h4.2l.6 2.9-3.7 1.6 3.5 7.9 4-1.8c.5.8 1 1.5 1.7 2.2l-3 3.4 6.5 5.7 3.1-3.6 3.2 1.6-1 4 8.5 1.9.9-4h4.5v4.4h8.6v-4.4h5.5v4.4h8.6v-4.4h5.4v4.4h8.6v-4.4h5.4"/>
  <path stroke="#158B58" stroke-miterlimit="10" stroke-width="3" d="M801 212.8h5.5v4.5h8.6v-4.5h5.4v4.5h8.6v-4.5h5.5v4.5h8.6v-4.5h4.5l1 4 8.3-1.8-.9-4.1a26 26 0 0 0 3.2-1.6l3.1 3.6 6.5-5.6-3-3.4a26 26 0 0 0 1.8-2.3l4 1.8 3.4-7.9-3.7-1.6.6-2.9h4.2v-8.6H872l-.6-2.9 3.7-1.6-3.5-7.9-4 1.8c-.5-.8-1-1.5-1.7-2.2l3-3.4-6.5-5.7-3 3.6-3.3-1.6 1-4-8.5-1.9-.9 4h-4.5v-4.4h-8.6v4.4H829v-4.4h-8.6v4.4h-5.4v-4.4h-8.6v4.4h-5.4"/>
  <path stroke="#158B58" stroke-miterlimit="10" stroke-width="3" d="M762.1 205.7a19 19 0 0 1 0-38h82.7a19 19 0 0 1 0 38h-82.7Z"/>
  <path stroke="#158B58" stroke-miterlimit="10" stroke-width="3" d="M844.5 175.1a11.6 11.6 0 1 1 0 23.2 11.6 11.6 0 0 1 0-23.2ZM763.7 198.3a11.6 11.6 0 1 0 0-23.2 11.6 11.6 0 0 0 0 23.2ZM804 198.3a11.6 11.6 0 1 0 0-23.2 11.6 11.6 0 0 0 0 23.2ZM716.8 9.3l42 52.6h30.8c8.4 0 15.3 6.8 15.3 15.2v25h39.6l18 18V147H744.8V79.8l-39.6-49.6"/>
  <path stroke="#158B58" stroke-miterlimit="10" stroke-width="3" d="m666 86.3 46 6.6 9.7-8.6h.1c3 2.1 3.5 6.2 1.4 9.1l-3.6 5-10.7 14.6-14 19.2c-5.4 7.3-15.7 8.9-23 3.5l-30.6-22.4c-7.4-5.4-9-15.8-3.6-23.3l5.2-7"/>
  <path stroke="#158B58" stroke-miterlimit="10" stroke-width="3" d="M640.3 88.4c.8-4.6 4.3-8.1 8.6-9.2L694.4 14c0-.8 0-1.6.2-2.4A11.6 11.6 0 1 1 709 24.7l-3.8 5.5-41.8 59.7a11.6 11.6 0 0 1-13.6 12c-6.3-1.1-10.6-7.1-9.5-13.5Z"/>
  <path stroke="#158B58" stroke-miterlimit="10" stroke-width="3" d="M651.8 95.7a5.1 5.1 0 1 0 0-10.3 5.1 5.1 0 0 0 0 10.3ZM705.8 18.4a5 5 0 1 0 0-10.2 5 5 0 0 0 0 10.2ZM744.8 102.1h60V79.8h-60v22.3ZM571.6 168.3h6.1a18.2 18.2 0 0 0 35.7-5.5 18.3 18.3 0 0 0-35.7-5.6h-10.4a5.7 5.7 0 0 0-5.7 5.6 7.4 7.4 0 1 1-7.4-7.4v-11a18.3 18.3 0 1 0 17.4 24Zm30.9-5.5a7.4 7.4 0 1 1-14.8 0 7.4 7.4 0 0 1 14.8 0ZM591.7 51h-34l-14.2 75.7h62.3l-14-75.7Zm-11.9 20 6.2-5.5 2.5 13.5-8.7-8Zm6.9 15.6-12 10-12-10 12-10.8 12 10.8Zm-12-20.2-8-7.2h15.9l-8 7.2Zm-5.2 4.7-8.7 7.9 2.5-13.5 6.2 5.6Zm-.2 30-15 12.6 4-21.6 11 9Zm5.4 4.6 15.2 12.8h-30.5l15.3-12.8Zm5.4-4.5L591 92l4 21.6-15-12.5Z"/>
  <path stroke="#158B58" stroke-miterlimit="10" stroke-width="3" d="M591.7 51h-34l-14.2 75.7h62.3l-14-75.7Zm-11.9 20 6.2-5.5 2.5 13.5-8.7-8Zm6.9 15.6-12 10-12-10 12-10.8 12 10.8Zm-12-20.2-8-7.2h15.9l-8 7.2Zm-5.2 4.7-8.7 7.9 2.5-13.5 6.2 5.6Zm-.2 30-15 12.6 4-21.6 11 9Zm5.4 4.6 15.2 12.8h-30.5l15.3-12.8Zm5.4-4.5L591 92l4 21.6-15-12.5ZM979.5 110.2c.7-1.7 1.2-3.4 1.7-5.2l-4.8-6a40 40 0 0 0 0-11.3l4.8-5.9c-.4-1.8-1-3.5-1.7-5.2l-7.3-2c-1.8-3.3-4-6.4-6.7-9.1l.4-7.6a46 46 0 0 0-4.4-3.2l-7 2.7c-3.4-1.7-7-2.8-10.9-3.5l-4-6.4H934l-4.2 6.4a40 40 0 0 0-10.8 3.5l-7-2.8c-1.6 1-3 2-4.5 3.2l.4 7.6a39.8 39.8 0 0 0-6.7 9.2l-7.3 2c-.7 1.6-1.3 3.3-1.7 5.1l4.8 6a40 40 0 0 0 0 11.3l-4.9 5.9c.5 1.8 1 3.5 1.7 5.2l7.4 2c1.8 3.3 4 6.4 6.7 9.1l-.5 7.6c1.4 1.2 2.9 2.3 4.4 3.2l7-2.7a40 40 0 0 0 11 3.5l4 6.4h5.5l4.1-6.4a40 40 0 0 0 10.9-3.5l7 2.8c1.6-1 3-2 4.5-3.2l-.5-7.6c2.7-2.7 5-5.8 6.7-9.2l7.4-2Z"/>
  <path stroke="#158B58" stroke-miterlimit="10" stroke-width="3" d="M936.7 120.1a26.8 26.8 0 1 0 0-53.6 26.8 26.8 0 0 0 0 53.6ZM913 166.4h47.4c4.8 0 8.6-3.8 8.6-8.5 0-4.8-3.8-8.6-8.6-8.6H913a8.6 8.6 0 1 0 0 17.1Z"/>
  <path stroke="#158B58" stroke-miterlimit="10" stroke-width="3" d="m909.2 165.7 16.9 9h34.3c1.4 0 2.7.3 3.9 1l-1.2-.8-15.8-8.5H913a8.6 8.6 0 0 1-7-3.6 8.6 8.6 0 0 0 3.2 2.9Z"/>
  <path stroke="#158B58" stroke-miterlimit="10" stroke-width="3" d="M913 191.8h47.4c4.8 0 8.6-3.8 8.6-8.5 0-4.8-3.8-8.6-8.6-8.6H913a8.6 8.6 0 1 0 0 17.1ZM913 217.3h47.4a8.6 8.6 0 1 0 0-17.1H913a8.6 8.6 0 1 0 0 17.1Z"/>
  <path stroke="#158B58" stroke-miterlimit="10" stroke-width="3" d="M947.4 191.8H913c-4.1 0-7.5-2.9-8.4-6.8.5 2.5 2 4.7 4.5 6l17 9.1h34.3c1.4 0 2.8.4 4 1l-1.4-1-15.6-8.3ZM509.2 402.8l30.4-30.4-30.4-30.3v60.7ZM542.9 375.8 512.5 406h60.8l-30.4-30.3ZM573.3 338.7h-60.8l30.4 30.4 30.4-30.4ZM576.6 342l-30.4 30.4 30.4 30.4v-60.7ZM890.3 286v59.5c0 10.6-8.6 19.2-19.2 19.2v38.9h12.5a26 26 0 0 0 33.3 0h12.5v-38.9a19.2 19.2 0 0 1-19.2-19.2V286m-10 114.4a17.5 17.5 0 0 1-1.9-34.9H900.2a17.8 17.8 0 0 1 3 .2 17.5 17.5 0 0 1-3 34.7Z"/>
  <path stroke="#158B58" stroke-miterlimit="10" stroke-width="3" d="M929.4 288.9V256H871v32.8c19.5-4.3 38.9-4.3 58.3 0ZM893.6 271c0-3.7 3-6.7 6.7-6.7 3.8 0 6.6 3 6.6 6.8 0 3.7-3 6.6-6.8 6.5-3.6 0-6.5-3-6.5-6.6ZM929.4 248H871v8h58.3v-8ZM929.4 239.9H871v8h58.3v-8ZM882.7 383h-11.6M929.4 383h-11.7M675.4 349.4h-5.5V345h-8.6v4.4H656V345h-8.6v4.4h-5.5V345h-8.5v4.4h-3.1l-1.5.1-.9-4-8.4 1.8 1 4a26 26 0 0 0-3.3 1.7l-3-3.6-6.6 5.6 3 3.4a26 26 0 0 0-1.7 2.2l-4-1.7-3.5 7.8 3.8 1.7-.7 2.9h-4.2v8.6h4.2l.7 2.8-3.8 1.7 3.5 7.9 4-1.8c.5.8 1 1.5 1.7 2.2l-3 3.4 6.5 5.6 3.1-3.5 3.2 1.6-.9 4 8.4 1.9.9-4h4.5v4.4h8.6v-4.4h5.5v4.4h8.6v-4.4h5.4v4.4h8.6v-4.4h5.5"/>
  <path stroke="#158B58" stroke-miterlimit="10" stroke-width="3" d="M670 401.7h5.5v4.4h8.6v-4.4h5.5v4.4h8.6v-4.4h5.4v4.4h8.6v-4.4h4.6l.8 4 8.4-1.8-.9-4.1 3.2-1.6 3.1 3.6 6.5-5.7-3-3.4c.7-.7 1.3-1.4 1.8-2.2l4 1.8 3.4-7.9-3.7-1.6.6-3h4.3v-8.5H741c-.1-1-.3-2-.6-2.9l3.7-1.7-3.4-7.8-4 1.8a27 27 0 0 0-1.7-2.3l3-3.4-6.6-5.6-3 3.6c-1-.6-2.1-1.2-3.3-1.6l1-4.1-8.5-1.8-.8 4h-4.6V345h-8.6v4.4h-5.4V345h-8.6v4.4H684V345h-8.6v4.4h-5.4"/>
  <path stroke="#158B58" stroke-miterlimit="10" stroke-width="3" d="M631.1 394.6a19 19 0 0 1 0-38H714a19 19 0 0 1 0 38H631Z"/>
  <path stroke="#158B58" stroke-miterlimit="10" stroke-width="3" d="M713.5 364a11.6 11.6 0 1 1 0 23.1 11.6 11.6 0 0 1 0-23ZM632.7 387.1a11.6 11.6 0 1 0 0-23 11.6 11.6 0 0 0 0 23ZM673 387.1a11.6 11.6 0 1 0 0-23 11.6 11.6 0 0 0 0 23ZM585.8 198.2l42 52.6h30.9c8.3 0 15.2 6.8 15.2 15.2v25h39.6l18 18v26.8H613.8v-67.1L574.2 219"/>
  <path stroke="#158B58" stroke-miterlimit="10" stroke-width="3" d="m535 275.2 46 6.6 9.8-8.7c3 2.2 3.6 6.3 1.4 9.2l-3.6 5-10.7 14.5-14 19.2c-5.4 7.4-15.7 9-23 3.6l-30.6-22.4c-7.4-5.4-9-15.9-3.6-23.3l5.2-7"/>
  <path stroke="#158B58" stroke-miterlimit="10" stroke-width="3" d="M509.4 277.3c.8-4.6 4.2-8.2 8.5-9.3l45.6-65.1a11.6 11.6 0 1 1 14.5 10.7l-3.8 5.5-41.7 59.7a11.6 11.6 0 0 1-13.6 12c-6.4-1.1-10.6-7.1-9.5-13.5Z"/>
  <path stroke="#158B58" stroke-miterlimit="10" stroke-width="3" d="M520.8 284.5a5.1 5.1 0 1 0 0-10.2 5.1 5.1 0 0 0 0 10.2ZM574.8 207.3a5 5 0 1 0 0-10.2 5 5 0 0 0 0 10.2ZM613.8 291h60v-22.3h-60V291ZM440.6 357.2h6.2a18.2 18.2 0 0 0 35.6-5.5 18.3 18.3 0 0 0-35.6-5.6h-10.5a5.7 5.7 0 0 0-5.6 5.6 7.4 7.4 0 1 1-7.5-7.4v-11a18.3 18.3 0 1 0 17.4 24Zm31-5.5a7.4 7.4 0 1 1-14.9 0 7.4 7.4 0 0 1 14.8 0ZM460.7 239.9h-34l-14.1 75.7h62.2l-14-75.7Zm-11.8 20 6.2-5.6 2.5 13.5-8.7-7.8Zm6.8 15.6-12 10-12-10 12-10.9 12 10.9Zm-12-20.2-8-7.2h16l-8 7.2Zm-5.2 4.7-8.7 7.8 2.5-13.5 6.2 5.7Zm-.2 30-15 12.6 4-21.7 11 9.2Zm5.4 4.6 15.3 12.8h-30.6l15.3-12.8Zm5.4-4.5 10.9-9.2 4 21.7-15-12.5Z"/>
  <path stroke="#158B58" stroke-miterlimit="10" stroke-width="3" d="M460.7 239.9h-34l-14.1 75.7h62.2l-14-75.7Zm-11.8 20 6.2-5.6 2.5 13.5-8.7-7.8Zm6.8 15.6-12 10-12-10 12-10.9 12 10.9Zm-12-20.2-8-7.2h16l-8 7.2Zm-5.2 4.7-8.7 7.8 2.5-13.5 6.2 5.7Zm-.2 30-15 12.6 4-21.7 11 9.2Zm5.4 4.6 15.3 12.8h-30.6l15.3-12.8Zm5.4-4.5 10.9-9.2 4 21.7-15-12.5ZM848.5 299c.7-1.6 1.3-3.4 1.7-5.1l-4.8-6a40 40 0 0 0 0-11.4l4.9-5.8c-.5-1.8-1-3.5-1.8-5.2l-7.3-2c-1.8-3.3-4-6.4-6.7-9.1l.5-7.6a45.9 45.9 0 0 0-4.4-3.3l-7 2.8c-3.4-1.7-7-2.9-11-3.5l-4-6.5H803l-4.1 6.4a40 40 0 0 0-10.9 3.5l-7-2.7c-1.6 1-3 2-4.5 3.2l.4 7.6a39.8 39.8 0 0 0-6.6 9.2l-7.4 2c-.7 1.6-1.3 3.3-1.7 5l4.8 6a40 40 0 0 0 0 11.4l-4.8 5.9c.4 1.7 1 3.5 1.7 5.1l7.3 2c1.8 3.4 4 6.4 6.7 9.2l-.5 7.6 4.4 3.2 7.1-2.7a40 40 0 0 0 10.9 3.5l4 6.4h5.5l4.2-6.4a40 40 0 0 0 10.8-3.5l7 2.8c1.6-1 3-2.1 4.5-3.3l-.4-7.5c2.6-2.7 4.9-5.8 6.7-9.2l7.3-2Z"/>
  <path stroke="#158B58" stroke-miterlimit="10" stroke-width="3" d="M805.8 309a26.8 26.8 0 1 0 0-53.6 26.8 26.8 0 0 0 0 53.6ZM782 355.3h47.5c4.7 0 8.5-3.8 8.5-8.6 0-4.7-3.8-8.5-8.5-8.5H782a8.6 8.6 0 1 0 0 17.1Z"/>
  <path stroke="#158B58" stroke-miterlimit="10" stroke-width="3" d="m778.2 354.6 17 9h34.3c1.3 0 2.6.3 3.8.9l-1.1-.7-15.9-8.5h-34.2a8.6 8.6 0 0 1-7-3.6 8.6 8.6 0 0 0 3.1 2.9Z"/>
  <path stroke="#158B58" stroke-miterlimit="10" stroke-width="3" d="M782 380.7h47.5c4.7 0 8.5-3.8 8.5-8.6 0-4.7-3.8-8.5-8.5-8.5H782a8.6 8.6 0 1 0 0 17.1ZM782 406.1h47.5c4.7 0 8.5-3.8 8.5-8.5 0-4.8-3.8-8.6-8.5-8.6H782a8.6 8.6 0 1 0 0 17.1Z"/>
  <path stroke="#158B58" stroke-miterlimit="10" stroke-width="3" d="M816.4 380.7h-34.3c-4.2 0-7.6-3-8.4-6.8.5 2.5 2 4.7 4.4 6l17.1 9.1h34.3c1.4 0 2.7.3 3.9 1l-1.4-1-15.6-8.3ZM1049.8 402.8l30.4-30.4-30.4-30.3v60.7ZM1083.5 375.8l-30.4 30.3h60.8l-30.4-30.3ZM1113.9 338.7h-60.8l30.4 30.4 30.4-30.4ZM1117.2 342l-30.4 30.4 30.4 30.4v-60.7ZM1430.9 286v59.5c0 10.6-8.6 19.2-19.2 19.2v38.9h12.5a26 26 0 0 0 33.3 0h12.5v-38.9a19.2 19.2 0 0 1-19.2-19.2V286m-10 114.4a17.5 17.5 0 0 1-1.8-34.9H1440.9a18 18 0 0 1 2.8.2 17.5 17.5 0 0 1-2.8 34.7Z"/>
  <path stroke="#158B58" stroke-miterlimit="10" stroke-width="3" d="M1470 288.9V256h-58.3v32.8c19.5-4.3 39-4.3 58.3 0Zm-35.8-17.8c0-3.7 3-6.7 6.7-6.7 3.8 0 6.6 3 6.6 6.8 0 3.7-3 6.6-6.8 6.5-3.6 0-6.5-3-6.5-6.6ZM1470 248h-58.3v8h58.3v-8ZM1470 239.9h-58.3v8h58.3v-8ZM1423.4 383h-11.7M1470 383h-11.6M1216 349.4h-5.5V345h-8.6v4.4h-5.4V345h-8.6v4.4h-5.4V345h-8.6v4.4h-3l-1.6.1-.9-4-8.4 1.8 1 4c-1.2.5-2.2 1-3.3 1.7l-3-3.6-6.5 5.6 3 3.4-1.8 2.2-4-1.7-3.5 7.8 3.8 1.7-.7 2.9h-4.2v8.6h4.2l.7 2.8-3.8 1.7 3.5 7.9 4-1.8 1.7 2.2-3 3.4 6.6 5.6 3-3.5 3.2 1.6-.9 4 8.4 1.9.9-4h4.5v4.4h8.7v-4.4h5.4v4.4h8.6v-4.4h5.4v4.4h8.6v-4.4h5.5"/>
  <path stroke="#158B58" stroke-miterlimit="10" stroke-width="3" d="M1210.7 401.7h5.5v4.4h8.5v-4.4h5.5v4.4h8.6v-4.4h5.4v4.4h8.6v-4.4h4.6l.9 4 8.4-1.8-1-4.1 3.3-1.6 3 3.6 6.5-5.7-3-3.4c.7-.7 1.3-1.4 1.8-2.2l4 1.8 3.5-7.9-3.8-1.6.7-3h4.2v-8.5h-4.3c-.1-1-.3-2-.6-2.9l3.8-1.7-3.5-7.8-4 1.8-1.7-2.3 3-3.4-6.6-5.6-3 3.6c-1-.6-2.1-1.2-3.2-1.6l.9-4.1-8.4-1.8-1 4h-4.4V345h-8.7v4.4h-5.4V345h-8.6v4.4h-5.5V345h-8.5v4.4h-5.5"/>
  <path stroke="#158B58" stroke-miterlimit="10" stroke-width="3" d="M1171.8 394.6a19 19 0 0 1 0-38h82.7a19 19 0 0 1 0 38h-82.7Z"/>
  <path stroke="#158B58" stroke-miterlimit="10" stroke-width="3" d="M1254.1 364a11.6 11.6 0 1 1 0 23.1 11.6 11.6 0 0 1 0-23ZM1173.3 387.1a11.6 11.6 0 1 0 0-23 11.6 11.6 0 0 0 0 23ZM1213.7 387.1a11.6 11.6 0 1 0 0-23 11.6 11.6 0 0 0 0 23ZM1126.4 198.2l42 52.6h30.9c8.4 0 15.2 6.8 15.2 15.2v25h39.6l18 18v26.8h-117.6v-67.1l-39.7-49.6"/>
  <path stroke="#158B58" stroke-miterlimit="10" stroke-width="3" d="m1075.6 275.2 46 6.6 9.8-8.7c3 2.2 3.6 6.3 1.5 9.2l-3.7 5-10.6 14.5-14.1 19.2c-5.4 7.4-15.7 9-23 3.6l-30.5-22.4c-7.5-5.4-9-15.9-3.6-23.3l5.1-7"/>
  <path stroke="#158B58" stroke-miterlimit="10" stroke-width="3" d="M1050 277.3c.8-4.6 4.2-8.2 8.5-9.3l45.6-65.1.1-2.4a11.6 11.6 0 1 1 14.4 13.1l-3.8 5.5-41.7 59.7c0 .8 0 1.6-.2 2.5a11.7 11.7 0 0 1-23-4Z"/>
  <path stroke="#158B58" stroke-miterlimit="10" stroke-width="3" d="M1061.5 284.5a5.1 5.1 0 1 0 0-10.3 5.1 5.1 0 0 0 0 10.3ZM1115.5 207.3a5 5 0 1 0 0-10.2 5 5 0 0 0 0 10.2ZM1154.4 291h60.1v-22.3h-60V291ZM981.2 357.2h6.2a18.2 18.2 0 0 0 35.7-5.5 18.3 18.3 0 0 0-35.7-5.6h-10.5a5.7 5.7 0 0 0-5.6 5.6 7.4 7.4 0 1 1-7.4-7.4v-11a18.3 18.3 0 1 0 17.3 24Zm31-5.5a7.4 7.4 0 1 1-14.9 0 7.4 7.4 0 0 1 14.9 0ZM1001.4 239.9h-34.1l-14.1 75.7h62.2l-14-75.7Zm-12 20 6.3-5.6 2.5 13.5-8.7-7.8Zm7 15.6-12 10-12.1-10 12-10.9 12 10.9Zm-12-20.2-8-7.2h15.8l-7.9 7.2ZM979 260l-8.7 7.8 2.5-13.5 6.2 5.7Zm-.2 30-15 12.6 4-21.7 11 9.2Zm5.4 4.6 15.3 12.8H969l15.3-12.8Zm5.4-4.5 11-9.2 4 21.7-15-12.5Z"/>
  <path stroke="#158B58" stroke-miterlimit="10" stroke-width="3" d="M1001.4 239.9h-34.1l-14.1 75.7h62.2l-14-75.7Zm-12 20 6.3-5.6 2.5 13.5-8.7-7.8Zm7 15.6-12 10-12.1-10 12-10.9 12 10.9Zm-12-20.2-8-7.2h15.8l-7.9 7.2ZM979 260l-8.7 7.8 2.5-13.5 6.2 5.7Zm-.2 30-15 12.6 4-21.7 11 9.2Zm5.4 4.6 15.3 12.8H969l15.3-12.8Zm5.4-4.5 11-9.2 4 21.7-15-12.5ZM1389.2 299l1.7-5.1-4.9-6a40 40 0 0 0 0-11.4l4.9-5.8c-.5-1.8-1-3.5-1.7-5.2l-7.4-2a40 40 0 0 0-6.6-9.1l.4-7.6a45.6 45.6 0 0 0-4.4-3.3l-7 2.8c-3.4-1.7-7-2.9-11-3.5l-4-6.5h-5.5l-4.1 6.4a40 40 0 0 0-10.8 3.5l-7.1-2.7c-1.5 1-3 2-4.5 3.2l.5 7.6a39.7 39.7 0 0 0-6.7 9.2l-7.4 2-1.7 5 4.8 6a40 40 0 0 0 0 11.4l-4.8 5.9c.4 1.7 1 3.5 1.7 5.1l7.4 2c1.7 3.4 4 6.4 6.6 9.2l-.4 7.6c1.4 1.1 2.8 2.2 4.4 3.2l7-2.7c3.4 1.6 7 2.8 10.9 3.5l4.1 6.4h5.5l4-6.4c3.9-.6 7.5-1.8 11-3.5l7 2.8c1.5-1 3-2.1 4.4-3.3l-.4-7.5c2.6-2.7 4.9-5.8 6.7-9.2l7.4-2Z"/>
  <path stroke="#158B58" stroke-miterlimit="10" stroke-width="3" d="M1346.4 309a26.8 26.8 0 1 0 0-53.6 26.8 26.8 0 0 0 0 53.6ZM1322.7 355.3h47.4a8.6 8.6 0 1 0 0-17.1h-47.4a8.6 8.6 0 1 0 0 17.1Z"/>
  <path stroke="#158B58" stroke-miterlimit="10" stroke-width="3" d="m1318.8 354.6 17 9h34.3c1.4 0 2.7.3 3.8.9l-1.1-.7-15.9-8.5h-34.2a8.6 8.6 0 0 1-7-3.6 8.6 8.6 0 0 0 3.1 2.9Z"/>
  <path stroke="#158B58" stroke-miterlimit="10" stroke-width="3" d="M1322.7 380.7h47.4a8.6 8.6 0 1 0 0-17.1h-47.4a8.6 8.6 0 1 0 0 17.1ZM1322.7 406.1h47.4c4.7 0 8.6-3.8 8.6-8.5 0-4.8-3.9-8.6-8.6-8.6h-47.4a8.6 8.6 0 1 0 0 17.1Z"/>
  <path stroke="#158B58" stroke-miterlimit="10" stroke-width="3" d="M1357 380.7h-34.3c-4.2 0-7.6-3-8.4-6.8.5 2.5 2 4.7 4.4 6l17.1 9.1h34.3c1.4 0 2.7.3 3.9 1l-1.4-1-15.6-8.3ZM378.2 591.7l30.4-30.4-30.4-30.4v60.8ZM412 564.6 381.4 595h60.8l-30.4-30.4ZM442.3 527.6h-60.8L412 558l30.4-30.4ZM445.6 531l-30.3 30.3 30.3 30.4v-60.8ZM759.3 474.9v59.5c0 10.6-8.6 19.2-19.2 19.2v38.9h12.5a26 26 0 0 0 33.3 0h12.5v-39a19.2 19.2 0 0 1-19.2-19.1v-59.5m-10 114.4a17.5 17.5 0 0 1-1.8-34.9h1.6l.3-.1c.7 0 1.5 0 2.2.2h.6a17.5 17.5 0 0 1-2.8 34.8Z"/>
  <path stroke="#158B58" stroke-miterlimit="10" stroke-width="3" d="M798.4 477.7V445h-58.3v32.8c19.5-4.4 39-4.4 58.3 0ZM762.6 460c0-3.7 3-6.7 6.7-6.7 3.8 0 6.6 3 6.6 6.8 0 3.7-3 6.6-6.8 6.5-3.6 0-6.5-3-6.5-6.6ZM798.4 436.9h-58.3v8h58.3v-8ZM798.4 428.7h-58.3v8.2h58.3v-8.2ZM751.8 571.8H740M798.4 571.8h-11.6M544.4 538.3h-5.5v-4.4h-8.6v4.4H525v-4.4h-8.6v4.4H511v-4.4h-8.6v4.4h-4.6l-.9-4-8.4 1.9 1 4-3.3 1.6-3-3.5-6.5 5.6 3 3.4c-.7.7-1.3 1.4-1.8 2.2l-4-1.7-3.5 7.8 3.8 1.7-.7 2.9h-4.2v8.5h4.2l.7 3-3.8 1.6 3.5 7.8 4-1.7a27 27 0 0 0 1.7 2.2l-3 3.4 6.6 5.6 3-3.6c1 .6 2.1 1.2 3.2 1.6l-.9 4.1 8.4 1.8 1-4h4.4v4.5h8.7v-4.4h5.4v4.4h8.6v-4.4h5.4v4.4h8.6v-4.4h5.5"/>
  <path stroke="#158B58" stroke-miterlimit="10" stroke-width="3" d="M539.1 590.6h5.5v4.4h8.5v-4.4h5.5v4.4h8.6v-4.4h5.4v4.4h8.6v-4.4h4.6l.9 4 8.4-1.9-1-4a26 26 0 0 0 3.3-1.6l3 3.5 6.5-5.6-3-3.4c.7-.7 1.3-1.4 1.8-2.2l4 1.7 3.5-7.8-3.8-1.7.7-2.9h4.2v-8.5H610l-.7-3 3.8-1.6-3.5-7.8-4 1.7-1.7-2.2 3-3.4-6.6-5.6-3 3.6c-1-.6-2.1-1.2-3.2-1.6l.9-4.1-8.4-1.8-1 4h-4.4v-4.5h-8.7v4.4h-5.4V534h-8.6v4.4h-5.5V534h-8.5v4.4H539"/>
  <path stroke="#158B58" stroke-miterlimit="10" stroke-width="3" d="M500.2 583.5a19 19 0 0 1 0-38h82.7a19 19 0 0 1 0 38h-82.7Z"/>
  <path stroke="#158B58" stroke-miterlimit="10" stroke-width="3" d="M582.5 552.9a11.6 11.6 0 1 1 0 23.1 11.6 11.6 0 0 1 0-23.1ZM501.7 576a11.6 11.6 0 1 0 0-23.1 11.6 11.6 0 0 0 0 23.1ZM542.1 576a11.6 11.6 0 1 0 0-23.1 11.6 11.6 0 0 0 0 23.1ZM454.8 387l42 52.6h30.9c8.4 0 15.2 6.9 15.2 15.3v25h39.6l18 18v26.8H483v-67.1l-39.7-49.7M404 464l46 6.7 9.8-8.7c3 2.2 3.6 6.3 1.5 9.2l-3.7 5-10.6 14.5-14.1 19.2c-5.4 7.3-15.7 9-23 3.6L379.4 491c-7.5-5.5-9-15.9-3.6-23.3l5.1-7"/>
  <path stroke="#158B58" stroke-miterlimit="10" stroke-width="3" d="M378.4 466.2c.8-4.7 4.2-8.2 8.5-9.3l45.6-65.1a11.5 11.5 0 0 1 13.5-11.9 11.6 11.6 0 0 1 1 22.6l-3.8 5.4-41.7 59.7c0 .9 0 1.7-.2 2.5a11.6 11.6 0 0 1-23-4Z"/>
  <path stroke="#158B58" stroke-miterlimit="10" stroke-width="3" d="M389.9 473.4a5.1 5.1 0 1 0 0-10.3 5.1 5.1 0 0 0 0 10.3ZM443.9 396.1a5 5 0 1 0 0-10.1 5 5 0 0 0 0 10.1ZM482.8 479.8H543v-22.2h-60v22.2ZM309.6 546.1h6.2a18.2 18.2 0 0 0 35.7-5.6 18.3 18.3 0 0 0-35.7-5.5h-10.5a5.7 5.7 0 0 0-5.6 5.5 7.4 7.4 0 1 1-7.4-7.4v-10.9a18.3 18.3 0 1 0 17.3 23.9Zm31-5.6a7.4 7.4 0 1 1-14.9 0 7.4 7.4 0 0 1 14.8 0ZM329.8 428.7h-34.1l-14.1 75.8h62.2l-14-75.8Zm-12 20.1 6.3-5.6 2.5 13.5-8.7-7.9Zm7 15.6-12.1 10-12-10 12-10.9 12 10.9Zm-12-20.2-8-7.2h15.8l-7.9 7.2Zm-5.3 4.6-8.7 8 2.5-13.6 6.2 5.6Zm-.2 30.1-15 12.5 4-21.6 11 9.1Zm5.4 4.6 15.3 12.7h-30.6l15.3-12.7Zm5.4-4.6 11-9 4 21.5-15-12.5Z"/>
  <path stroke="#158B58" stroke-miterlimit="10" stroke-width="3" d="M329.8 428.7h-34.1l-14.1 75.8h62.2l-14-75.8Zm-12 20.1 6.3-5.6 2.5 13.5-8.7-7.9Zm7 15.6-12.1 10-12-10 12-10.9 12 10.9Zm-12-20.2-8-7.2h15.8l-7.9 7.2Zm-5.3 4.6-8.7 8 2.5-13.6 6.2 5.6Zm-.2 30.1-15 12.5 4-21.6 11 9.1Zm5.4 4.6 15.3 12.7h-30.6l15.3-12.7Zm5.4-4.6 11-9 4 21.5-15-12.5ZM717.6 488a46 46 0 0 0 1.7-5.3l-4.9-5.9a40 40 0 0 0 0-11.4l4.9-5.9c-.5-1.7-1-3.4-1.7-5.1l-7.4-2c-1.8-3.3-4-6.4-6.6-9.2l.4-7.6a45.9 45.9 0 0 0-4.4-3.2l-7 2.7c-3.4-1.6-7-2.8-11-3.5l-4-6.4H672l-4.1 6.4a40 40 0 0 0-10.8 3.5l-7.1-2.7c-1.6 1-3 2-4.4 3.2l.4 7.6a39.8 39.8 0 0 0-6.7 9.2l-7.4 1.9-1.7 5.1 4.8 6a40 40 0 0 0 0 11.4l-4.8 5.8c.4 1.8 1 3.5 1.7 5.2l7.4 2c1.7 3.3 4 6.4 6.6 9.2l-.4 7.6c1.4 1.1 2.8 2.2 4.4 3.2l7-2.7a40 40 0 0 0 10.9 3.5l4.1 6.4h5.5l4-6.4c3.9-.7 7.5-1.9 11-3.5l7 2.7c1.5-1 3-2 4.4-3.2l-.4-7.6c2.6-2.7 4.9-5.8 6.7-9.2l7.4-1.9Z"/>
  <path stroke="#158B58" stroke-miterlimit="10" stroke-width="3" d="M674.8 497.9a26.8 26.8 0 1 0 0-53.6 26.8 26.8 0 0 0 0 53.6ZM651 544.2h47.5a8.6 8.6 0 0 0 0-17.1H651a8.6 8.6 0 1 0 0 17.1Z"/>
  <path stroke="#158B58" stroke-miterlimit="10" stroke-width="3" d="m647.2 543.4 17 9h34.3c1.4 0 2.7.4 3.8 1l-1.1-.8-15.9-8.4h-34.2a8.6 8.6 0 0 1-7-3.7 8.6 8.6 0 0 0 3.1 3Z"/>
  <path stroke="#158B58" stroke-miterlimit="10" stroke-width="3" d="M651 569.6h47.5c4.7 0 8.5-3.8 8.5-8.6 0-4.7-3.8-8.5-8.5-8.5H651a8.6 8.6 0 1 0 0 17.1ZM651 595h47.5c4.7 0 8.5-3.8 8.5-8.6 0-4.7-3.8-8.5-8.5-8.5H651a8.6 8.6 0 1 0 0 17.1Z"/>
  <path stroke="#158B58" stroke-miterlimit="10" stroke-width="3" d="M685.4 569.6h-34.3c-4.2 0-7.6-3-8.4-6.8.5 2.4 2 4.7 4.4 6l17.1 9h34.3c1.4 0 2.7.4 3.9 1l-1.4-.9-15.6-8.3ZM918.8 591.7l30.4-30.4-30.4-30.4v60.8ZM952.5 564.6 922.2 595h60.7l-30.4-30.4ZM983 527.6h-60.8l30.3 30.4 30.4-30.4ZM986.3 531l-30.4 30.3 30.4 30.4v-60.8ZM1300 474.9v59.5c0 10.6-8.7 19.2-19.3 19.2v38.9h12.5a26 26 0 0 0 33.3 0h12.5v-39a19.2 19.2 0 0 1-19.2-19.1v-59.5m-10 114.4a17.5 17.5 0 0 1-1.8-34.9h1.7l.2-.1c.8 0 1.5 0 2.2.2h.7a17.5 17.5 0 0 1-3 34.8Z"/>
  <path stroke="#158B58" stroke-miterlimit="10" stroke-width="3" d="M1339 477.7V445h-58.3v32.8c19.5-4.4 39-4.4 58.3 0Zm-35.8-17.7c0-3.7 3-6.7 6.8-6.7 3.7 0 6.6 3 6.5 6.8 0 3.7-3 6.6-6.7 6.5-3.7 0-6.6-3-6.6-6.6ZM1339 436.9h-58.3v8h58.3v-8ZM1339 428.7h-58.3v8.2h58.3v-8.2ZM1292.4 571.8h-11.7M1339 571.8h-11.6M1085 538.3h-5.5v-4.4h-8.5v4.4h-5.5v-4.4h-8.6v4.4h-5.4v-4.4h-8.6v4.4h-4.6l-.8-4-8.4 1.9.9 4-3.2 1.6-3.1-3.5-6.5 5.6 3 3.4c-.7.7-1.3 1.4-1.8 2.2l-4-1.7-3.4 7.8 3.7 1.7c-.3 1-.5 1.9-.6 2.9h-4.3v8.5h4.3l.6 3-3.8 1.6 3.5 7.8 4-1.7 1.7 2.2-3 3.4 6.6 5.6 3-3.6c1 .6 2.1 1.2 3.3 1.6l-1 4.1 8.5 1.8.8-4h4.6v4.5h8.6v-4.4h5.4v4.4h8.6v-4.4h5.5v4.4h8.5v-4.4h5.5"/>
  <path stroke="#158B58" stroke-miterlimit="10" stroke-width="3" d="M1079.7 590.6h5.5v4.4h8.6v-4.4h5.4v4.4h8.6v-4.4h5.5v4.4h8.5v-4.4h4.6l.9 4 8.4-1.9-1-4c1.2-.5 2.3-1 3.3-1.6l3 3.5 6.5-5.6-2.9-3.4 1.7-2.2 4 1.7 3.5-7.8-3.8-1.7.7-2.9h4.2v-8.5h-4.2l-.7-3 3.8-1.6-3.5-7.8-4 1.7c-.5-.7-1-1.5-1.7-2.2l3-3.4-6.5-5.6-3.1 3.6c-1-.6-2.1-1.2-3.2-1.6l.9-4.1-8.4-1.8-.9 4h-4.5v-4.5h-8.6v4.4h-5.5V534h-8.6v4.4h-5.4V534h-8.6v4.4h-5.5"/>
  <path stroke="#158B58" stroke-miterlimit="10" stroke-width="3" d="M1040.8 583.5a19 19 0 0 1 0-38h82.7a19 19 0 0 1 0 38h-82.7Z"/>
  <path stroke="#158B58" stroke-miterlimit="10" stroke-width="3" d="M1123.1 552.9a11.6 11.6 0 1 1 0 23.1 11.6 11.6 0 0 1 0-23.1ZM1042.3 576a11.6 11.6 0 1 0 0-23.1 11.6 11.6 0 0 0 0 23.1ZM1082.7 576a11.6 11.6 0 1 0 0-23.1 11.6 11.6 0 0 0 0 23.1ZM995.4 387l42 52.6h30.9c8.4 0 15.2 6.9 15.2 15.3v25h39.6l18 18v26.8h-117.6v-67.1l-39.7-49.7"/>
  <path stroke="#158B58" stroke-miterlimit="10" stroke-width="3" d="m944.6 464 46 6.7 9.8-8.7c3 2.2 3.6 6.3 1.5 9.2l-3.6 5-10.7 14.5-14 19.2c-5.5 7.3-15.7 9-23 3.6L920 491c-7.4-5.5-9-15.9-3.6-23.3l5.1-7"/>
  <path stroke="#158B58" stroke-miterlimit="10" stroke-width="3" d="M919 466.2c.8-4.7 4.3-8.2 8.6-9.3l45.5-65.1a11.6 11.6 0 1 1 14.5 10.7l-3.8 5.4-41.7 59.7-.1 2.5a11.6 11.6 0 0 1-23-4Z"/>
  <path stroke="#158B58" stroke-miterlimit="10" stroke-width="3" d="M930.5 473.4a5.1 5.1 0 1 0 0-10.3 5.1 5.1 0 0 0 0 10.3ZM984.5 396.1a5 5 0 1 0 0-10.1 5 5 0 0 0 0 10.1ZM1023.4 479.8h60.1v-22.2h-60v22.2ZM850.2 546.1h6.2a18.2 18.2 0 0 0 35.7-5.6 18.3 18.3 0 0 0-35.7-5.5H846a5.7 5.7 0 0 0-5.7 5.5 7.4 7.4 0 1 1-7.4-7.4v-10.9a18.3 18.3 0 1 0 17.3 23.9Zm31-5.6a7.4 7.4 0 1 1-14.8 0 7.4 7.4 0 0 1 14.8 0ZM870.4 428.7h-34.1l-14.1 75.8h62.3l-14.1-75.8Zm-11.9 20.1 6.2-5.6 2.5 13.5-8.7-7.9Zm6.8 15.6-12 10-12-10 12-10.9 12 10.9Zm-12-20.2-7.9-7.2h15.9l-8 7.2Zm-5.1 4.6-8.7 8 2.5-13.6 6.2 5.6Zm-.3 30.1L833 491.4l4-21.6 11 9.1Zm5.4 4.6 15.3 12.7h-30.5l15.2-12.7Zm5.4-4.6 11-9 4 21.5-15-12.5Z"/>
  <path stroke="#158B58" stroke-miterlimit="10" stroke-width="3" d="M870.4 428.7h-34.1l-14.1 75.8h62.3l-14.1-75.8Zm-11.9 20.1 6.2-5.6 2.5 13.5-8.7-7.9Zm6.8 15.6-12 10-12-10 12-10.9 12 10.9Zm-12-20.2-7.9-7.2h15.9l-8 7.2Zm-5.1 4.6-8.7 8 2.5-13.6 6.2 5.6Zm-.3 30.1L833 491.4l4-21.6 11 9.1Zm5.4 4.6 15.3 12.7h-30.5l15.2-12.7Zm5.4-4.6 11-9 4 21.5-15-12.5ZM1258.2 488l1.7-5.3-4.8-5.9a40 40 0 0 0 0-11.4l4.8-5.9c-.5-1.7-1-3.4-1.7-5.1l-7.4-2c-1.8-3.3-4-6.4-6.6-9.2l.4-7.6a45.6 45.6 0 0 0-4.4-3.2l-7 2.7c-3.4-1.6-7-2.8-11-3.5l-4-6.4h-5.5l-4.1 6.4a40 40 0 0 0-10.8 3.5l-7-2.7c-1.6 1-3.1 2-4.5 3.2l.4 7.6a40 40 0 0 0-6.7 9.2l-7.4 1.9-1.7 5.1 4.8 6c-.5 3.8-.5 7.7 0 11.4l-4.8 5.8c.5 1.8 1 3.5 1.7 5.2l7.4 2c1.8 3.3 4 6.4 6.6 9.2l-.4 7.6c1.4 1.1 2.8 2.2 4.4 3.2l7-2.7a40 40 0 0 0 11 3.5l4 6.4h5.5l4.1-6.4c3.8-.7 7.4-1.9 10.8-3.5l7 2.7c1.6-1 3.1-2 4.5-3.2l-.4-7.6c2.7-2.7 5-5.8 6.7-9.2l7.4-1.9Z"/>
  <path stroke="#158B58" stroke-miterlimit="10" stroke-width="3" d="M1215.4 497.9a26.8 26.8 0 1 0 0-53.6 26.8 26.8 0 0 0 0 53.6ZM1191.7 544.2h47.4a8.6 8.6 0 1 0 0-17.1h-47.4a8.6 8.6 0 1 0 0 17.1Z"/>
  <path stroke="#158B58" stroke-miterlimit="10" stroke-width="3" d="m1187.9 543.4 16.9 9h34.3c1.4 0 2.7.4 3.8 1l-1-.8-16-8.4h-34.2a8.5 8.5 0 0 1-7-3.7 8.6 8.6 0 0 0 3.2 3Z"/>
  <path stroke="#158B58" stroke-miterlimit="10" stroke-width="3" d="M1191.7 569.6h47.4a8.6 8.6 0 1 0 0-17.1h-47.4a8.6 8.6 0 1 0 0 17.1ZM1191.7 595h47.4a8.6 8.6 0 1 0 0-17.1h-47.4a8.6 8.6 0 1 0 0 17.1Z"/>
  <path stroke="#158B58" stroke-miterlimit="10" stroke-width="3" d="M1226 569.6h-34.3c-4.1 0-7.6-3-8.4-6.8.5 2.4 2 4.7 4.4 6l17.2 9h34.2c1.4 0 2.7.4 4 1l-1.4-.9-15.7-8.3ZM247.2 780.5l30.4-30.3-30.4-30.4v60.7ZM281 753.5 250.5 784h60.7L281 753.5ZM311.3 716.5h-60.7l30.3 30.3 30.4-30.3ZM314.7 719.8l-30.4 30.4 30.4 30.3v-60.7ZM628.3 663.8v59.5c0 10.6-8.6 19.2-19.2 19.2v38.8h12.5a26 26 0 0 0 33.3 0h12.5v-38.8a19.2 19.2 0 0 1-19.1-19.2v-59.5m-10 114.4a17.5 17.5 0 0 1-2-35h2l2.2.1.7.1a17.5 17.5 0 0 1-3 34.8Z"/>
  <path stroke="#158B58" stroke-miterlimit="10" stroke-width="3" d="M667.4 666.6v-32.8h-58.3v32.9c19.5-4.4 39-4.4 58.3-.1Zm-35.8-17.8c0-3.6 3-6.7 6.8-6.6 3.7 0 6.6 3 6.5 6.7 0 3.8-3 6.7-6.7 6.6-3.7-.1-6.6-3-6.6-6.7ZM667.4 625.7h-58.3v8.1h58.3v-8ZM667.4 617.6h-58.3v8.1h58.3v-8ZM620.8 760.7H609M667.4 760.7h-11.6M413.4 727.2H408v-4.4h-8.6v4.4h-5.5v-4.4h-8.6v4.4H380v-4.4h-8.6v4.4h-4.6l-.8-4-8.4 1.8.9 4.1a26 26 0 0 0-3.2 1.6l-3.1-3.6-6.5 5.7 3 3.4c-.7.7-1.3 1.4-1.8 2.2l-4-1.8-3.4 7.9 3.7 1.6-.6 3h-4.3v8.5h4.3c.1 1 .3 2 .6 2.9l-3.8 1.7 3.5 7.8 4-1.8a27 27 0 0 0 1.7 2.3l-3 3.4 6.6 5.6 3-3.6c1 .6 2.1 1.2 3.3 1.6l-1 4.1 8.5 1.8.8-4h4.6v4.5h8.6v-4.4h5.4v4.4h8.6v-4.4h5.5v4.4h8.6v-4.4h5.4"/>
  <path stroke="#158B58" stroke-miterlimit="10" stroke-width="3" d="M408.1 779.5h5.5v4.4h8.6v-4.4h5.4v4.4h8.6v-4.4h5.5v4.4h8.5v-4.4h3.1l1.5-.1.9 4 8.4-1.8-1-4c1.2-.5 2.3-1 3.3-1.7l3 3.6 6.6-5.6-3-3.4a26 26 0 0 0 1.7-2.2l4 1.7 3.5-7.8-3.8-1.7.7-2.9h4.2V749h-4.2l-.7-2.8 3.8-1.7-3.5-7.9-4 1.8c-.5-.8-1-1.5-1.7-2.2l3-3.4-6.5-5.6-3.1 3.5-3.2-1.6.9-4-8.4-1.9-.9 4h-4.5v-4.4h-8.6v4.4h-5.5v-4.4h-8.6v4.4h-5.4v-4.4h-8.6v4.4H408"/>
  <path stroke="#158B58" stroke-miterlimit="10" stroke-width="3" d="M369.2 772.3a19 19 0 0 1 0-38h82.7a19 19 0 0 1 0 38h-82.7Z"/>
  <path stroke="#158B58" stroke-miterlimit="10" stroke-width="3" d="M451.5 741.8a11.6 11.6 0 1 1 0 23 11.6 11.6 0 0 1 0-23ZM370.7 764.9a11.6 11.6 0 1 0 0-23.1 11.6 11.6 0 0 0 0 23ZM411.1 764.9a11.6 11.6 0 1 0 0-23.1 11.6 11.6 0 0 0 0 23ZM323.8 576l42 52.5h30.9c8.4 0 15.2 6.8 15.2 15.3v25h39.6l18 18v26.8H352v-67.2l-39.7-49.6M273 653l46 6.6 9.8-8.7c3 2.2 3.6 6.3 1.5 9.2l-3.6 4.9-10.7 14.6-14 19.2c-5.5 7.3-15.7 8.9-23 3.5L248.3 680c-7.4-5.5-9-16-3.6-23.4l5.1-7"/>
  <path stroke="#158B58" stroke-miterlimit="10" stroke-width="3" d="M247.4 655c.8-4.6 4.3-8.1 8.6-9.2l45.5-65.2a11.6 11.6 0 1 1 14.5 10.8l-3.8 5.4-41.7 59.7a11.6 11.6 0 0 1-13.6 12c-6.3-1-10.6-7-9.5-13.4Z"/>
  <path stroke="#158B58" stroke-miterlimit="10" stroke-width="3" d="M258.9 662.3a5.1 5.1 0 1 0 0-10.3 5.1 5.1 0 0 0 0 10.3ZM312.9 585a5 5 0 1 0 0-10.1 5 5 0 0 0 0 10.1ZM351.8 668.7H412v-22.3h-60v22.3ZM178.6 735h6.2a18.2 18.2 0 0 0 35.7-5.6 18.3 18.3 0 0 0-35.7-5.6h-10.4a5.7 5.7 0 0 0-5.7 5.6 7.4 7.4 0 1 1-7.4-7.4v-10.9a18.3 18.3 0 1 0 17.3 23.9Zm31-5.6a7.4 7.4 0 1 1-14.8 0 7.4 7.4 0 0 1 14.8 0ZM198.8 617.6h-34.1l-14.1 75.7h62.3l-14.1-75.7Zm-11.9 20.1 6.2-5.6 2.5 13.5-8.7-7.9Zm6.8 15.5-12 10-12-10 12-10.8 12 10.8Zm-12-20.2-7.9-7.2h15.9l-8 7.2Zm-5.1 4.7-8.7 7.9 2.5-13.5 6.2 5.6Zm-.3 30.1-15 12.5 4.1-21.6 11 9.1Zm5.4 4.5 15.3 12.8h-30.5l15.2-12.8Zm5.4-4.5 11-9.1 4 21.6-15-12.5Z"/>
  <path stroke="#158B58" stroke-miterlimit="10" stroke-width="3" d="M198.8 617.6h-34.1l-14.1 75.7h62.3l-14.1-75.7Zm-11.9 20.1 6.2-5.6 2.5 13.5-8.7-7.9Zm6.8 15.5-12 10-12-10 12-10.8 12 10.8Zm-12-20.2-7.9-7.2h15.9l-8 7.2Zm-5.1 4.7-8.7 7.9 2.5-13.5 6.2 5.6Zm-.3 30.1-15 12.5 4.1-21.6 11 9.1Zm5.4 4.5 15.3 12.8h-30.5l15.2-12.8Zm5.4-4.5 11-9.1 4 21.6-15-12.5ZM586.6 676.8l1.7-5.2-4.8-5.9a40 40 0 0 0 0-11.4l4.8-5.9c-.5-1.7-1-3.5-1.7-5.2l-7.4-2c-1.7-3.3-4-6.4-6.6-9l.4-7.7a46 46 0 0 0-4.4-3.2l-7 2.7c-3.4-1.6-7-2.8-10.9-3.5l-4.1-6.4H541l-4.1 6.4c-3.8.6-7.4 1.8-10.8 3.5l-7-2.8c-1.6 1-3.1 2.1-4.5 3.3l.4 7.5a39.8 39.8 0 0 0-6.7 9.2l-7.4 2-1.7 5.1 4.8 6a40 40 0 0 0 0 11.3l-4.8 6c.5 1.7 1 3.4 1.7 5.1l7.4 2c1.8 3.3 4 6.4 6.6 9.1l-.4 7.6c1.4 1.2 2.9 2.3 4.4 3.3l7-2.8a40 40 0 0 0 11 3.5l4 6.5h5.5l4.1-6.4a40 40 0 0 0 10.8-3.5l7 2.7c1.6-1 3.1-2 4.5-3.2l-.4-7.6c2.6-2.7 5-5.8 6.7-9.2l7.4-2Z"/>
  <path stroke="#158B58" stroke-miterlimit="10" stroke-width="3" d="M543.8 686.8a26.8 26.8 0 1 0 0-53.6 26.8 26.8 0 0 0 0 53.6ZM520.1 733h47.4c4.7 0 8.6-3.8 8.6-8.5 0-4.8-3.9-8.6-8.6-8.6h-47.4a8.6 8.6 0 1 0 0 17.1Z"/>
  <path stroke="#158B58" stroke-miterlimit="10" stroke-width="3" d="m516.3 732.3 16.9 9h34.3c1.4 0 2.7.4 3.8 1l-1-.8-16-8.5h-34.2a8.6 8.6 0 0 1-7-3.6 8.6 8.6 0 0 0 3.2 3Z"/>
  <path stroke="#158B58" stroke-miterlimit="10" stroke-width="3" d="M520.1 758.5h47.4a8.6 8.6 0 1 0 0-17.1h-47.4a8.6 8.6 0 1 0 0 17.1ZM520.1 783.9h47.4a8.6 8.6 0 1 0 0-17.1h-47.4a8.6 8.6 0 1 0 0 17.1Z"/>
  <path stroke="#158B58" stroke-miterlimit="10" stroke-width="3" d="M554.4 758.5h-34.3c-4.1 0-7.6-3-8.4-6.8.5 2.4 2 4.6 4.4 5.9l17.2 9.2h34.2c1.4 0 2.7.3 3.9.9l-1.3-.9-15.7-8.3ZM787.9 780.5l30.3-30.3-30.4-30.4v60.7ZM821.6 753.5 791.2 784h60.7l-30.3-30.4ZM852 716.5h-60.8l30.4 30.3 30.3-30.3ZM855.3 719.8l-30.4 30.4 30.4 30.3v-60.7ZM1169 663.8v59.5c0 10.6-8.7 19.2-19.3 19.2v38.8h12.6a26 26 0 0 0 33.3 0h12.5v-38.8a19.2 19.2 0 0 1-19.2-19.2v-59.5m-10 114.4a17.5 17.5 0 0 1-1.9-35H1179a18 18 0 0 1 2.9.2 17.5 17.5 0 0 1-2.9 34.8Z"/>
  <path stroke="#158B58" stroke-miterlimit="10" stroke-width="3" d="M1208 666.6v-32.8h-58.3v32.9c19.6-4.4 39-4.4 58.3-.1Zm-35.8-17.8c0-3.6 3.1-6.7 6.8-6.6 3.8 0 6.6 3 6.6 6.7 0 3.8-3 6.7-6.8 6.6-3.6-.1-6.5-3-6.5-6.7ZM1208 625.7h-58.3v8.1h58.3v-8ZM1208 617.6h-58.3v8.1h58.3v-8ZM1161.4 760.7h-11.6M1208 760.7h-11.6M954 727.2h-5.4v-4.4H940v4.4h-5.5v-4.4H926v4.4h-5.5v-4.4h-8.6v4.4h-4.5l-1-4-8.3 1.8.9 4.1a26 26 0 0 0-3.2 1.6l-3.1-3.6-6.5 5.7 3 3.4-1.8 2.2-4-1.8-3.4 7.9 3.7 1.6-.6 3h-4.2v8.5h4.2c.1 1 .4 2 .6 2.9l-3.7 1.7 3.4 7.8 4-1.8a27 27 0 0 0 1.8 2.3l-3 3.4 6.5 5.6 3-3.6c1.1.6 2.2 1.2 3.3 1.6l-1 4.1 8.5 1.8.9-4h4.5v4.5h8.6v-4.4h5.5v4.4h8.5v-4.4h5.5v4.4h8.6v-4.4h5.4"/>
  <path stroke="#158B58" stroke-miterlimit="10" stroke-width="3" d="M948.8 779.5h5.4v4.4h8.6v-4.4h5.4v4.4h8.6v-4.4h5.5v4.4h8.6v-4.4h3l1.5-.1 1 4 8.3-1.8-.9-4c1.1-.5 2.2-1 3.2-1.7l3 3.6 6.6-5.6-3-3.4 1.8-2.2 4 1.7 3.4-7.8-3.7-1.7.6-2.9h4.2V749h-4.2l-.6-2.8 3.7-1.7-3.5-7.9-4 1.8c-.5-.8-1-1.5-1.7-2.2l3-3.4-6.5-5.6-3.1 3.5-3.2-1.6.9-4-8.4-1.9-.9 4H991v-4.4h-8.6v4.4h-5.5v-4.4h-8.6v4.4h-5.4v-4.4h-8.6v4.4h-5.4"/>
  <path stroke="#158B58" stroke-miterlimit="10" stroke-width="3" d="M909.8 772.3a19 19 0 0 1 0-38h82.7a19 19 0 0 1 0 38h-82.7Z"/>
  <path stroke="#158B58" stroke-miterlimit="10" stroke-width="3" d="M992.1 741.8a11.6 11.6 0 1 1 0 23 11.6 11.6 0 0 1 0-23ZM911.3 764.9a11.6 11.6 0 1 0 0-23.1 11.6 11.6 0 0 0 0 23ZM951.7 764.9a11.6 11.6 0 1 0 0-23.1 11.6 11.6 0 0 0 0 23ZM864.4 576l42 52.5h30.9c8.4 0 15.3 6.8 15.3 15.3v25H992l18.1 18v26.8H892.5v-67.2l-39.6-49.6"/>
  <path stroke="#158B58" stroke-miterlimit="10" stroke-width="3" d="m813.6 653 46 6.6 9.8-8.7h.1c2.9 2.2 3.5 6.3 1.4 9.2l-3.6 4.9-10.7 14.6-14 19.2c-5.4 7.3-15.7 8.9-23 3.5L789 680c-7.4-5.5-9-16-3.6-23.4l5.2-7"/>
  <path stroke="#158B58" stroke-miterlimit="10" stroke-width="3" d="M788 655c.8-4.6 4.3-8.1 8.6-9.2l45.5-65.2a11.5 11.5 0 0 1 13.5-11.8 11.6 11.6 0 0 1 1 22.6l-3.8 5.4-41.7 59.7a11.6 11.6 0 0 1-13.6 12c-6.3-1-10.6-7-9.5-13.4Z"/>
  <path stroke="#158B58" stroke-miterlimit="10" stroke-width="3" d="M799.5 662.3a5.1 5.1 0 1 0 0-10.3 5.1 5.1 0 0 0 0 10.3ZM853.5 585a5 5 0 1 0 0-10.1 5 5 0 0 0 0 10.1ZM892.5 668.7h60v-22.3h-60v22.3ZM719.3 735h6.1a18.2 18.2 0 0 0 35.7-5.6 18.3 18.3 0 0 0-35.7-5.6H715a5.7 5.7 0 0 0-5.7 5.6 7.4 7.4 0 1 1-7.4-7.4v-10.9a18.3 18.3 0 1 0 17.4 23.9Zm30.9-5.6a7.4 7.4 0 1 1-14.8 0 7.4 7.4 0 0 1 14.8 0ZM739.4 617.6h-34.1l-14 75.7h62.2l-14-75.7Zm-11.9 20.1 6.2-5.6 2.5 13.5-8.7-7.9Zm6.9 15.5-12 10-12-10 12-10.8 12 10.8Zm-12-20.2-8-7.2h15.9l-8 7.2Zm-5.2 4.7-8.7 7.9L711 632l6.2 5.6Zm-.3 30.1L702 680.3l4-21.6 11 9.1Zm5.4 4.5 15.3 12.8h-30.5l15.2-12.8Zm5.5-4.5 10.9-9.1 4 21.6-15-12.5Z"/>
  <path stroke="#158B58" stroke-miterlimit="10" stroke-width="3" d="M739.4 617.6h-34.1l-14 75.7h62.2l-14-75.7Zm-11.9 20.1 6.2-5.6 2.5 13.5-8.7-7.9Zm6.9 15.5-12 10-12-10 12-10.8 12 10.8Zm-12-20.2-8-7.2h15.9l-8 7.2Zm-5.2 4.7-8.7 7.9L711 632l6.2 5.6Zm-.3 30.1L702 680.3l4-21.6 11 9.1Zm5.4 4.5 15.3 12.8h-30.5l15.2-12.8Zm5.5-4.5 10.9-9.1 4 21.6-15-12.5ZM1127.2 676.8l1.7-5.2-4.8-5.9c.5-3.9.5-7.7 0-11.4l4.8-5.9c-.4-1.7-1-3.5-1.7-5.2l-7.4-2a40 40 0 0 0-6.6-9l.4-7.7a47 47 0 0 0-4.4-3.2l-7 2.7c-3.4-1.6-7-2.8-10.9-3.5l-4.1-6.4h-5.4l-4.2 6.4c-3.8.6-7.4 1.8-10.8 3.5l-7-2.8c-1.6 1-3 2.1-4.5 3.3l.4 7.5a39.7 39.7 0 0 0-6.7 9.2l-7.3 2c-.7 1.6-1.3 3.3-1.8 5.1l4.9 6a40 40 0 0 0 0 11.3l-4.9 6c.5 1.7 1 3.4 1.7 5.1l7.4 2c1.8 3.3 4 6.4 6.7 9.1l-.5 7.6c1.4 1.2 2.9 2.3 4.4 3.3l7-2.8a40 40 0 0 0 11 3.5l4 6.5h5.5l4.1-6.4a40 40 0 0 0 10.9-3.5l7 2.7c1.6-1 3-2 4.5-3.2l-.5-7.6a40 40 0 0 0 6.7-9.2l7.4-2Z"/>
  <path stroke="#158B58" stroke-miterlimit="10" stroke-width="3" d="M1084.4 686.8a26.8 26.8 0 1 0 0-53.6 26.8 26.8 0 0 0 0 53.6ZM1060.7 733h47.4c4.8 0 8.6-3.8 8.6-8.5 0-4.8-3.8-8.6-8.6-8.6h-47.4a8.6 8.6 0 1 0 0 17.1Z"/>
  <path stroke="#158B58" stroke-miterlimit="10" stroke-width="3" d="m1056.9 732.3 16.9 9h34.3c1.4 0 2.7.4 3.9 1l-1.2-.8-15.8-8.5h-34.3a8.5 8.5 0 0 1-7-3.6 8.7 8.7 0 0 0 3.2 3Z"/>
  <path stroke="#158B58" stroke-miterlimit="10" stroke-width="3" d="M1060.7 758.5h47.4a8.6 8.6 0 1 0 0-17.1h-47.4a8.6 8.6 0 1 0 0 17.1ZM1060.7 783.9h47.4a8.6 8.6 0 1 0 0-17.1h-47.4a8.6 8.6 0 1 0 0 17.1Z"/>
  <path stroke="#158B58" stroke-miterlimit="10" stroke-width="3" d="M1095 758.5h-34.3c-4.1 0-7.6-3-8.4-6.8.5 2.4 2 4.6 4.4 5.9l17.2 9.2h34.2c1.4 0 2.8.3 4 .9l-1.4-.9-15.6-8.3ZM106.3 969.4l30.3-30.3-30.3-30.4v60.7ZM140 942.4l-30.4 30.4h60.7L140 942.4ZM170.3 905.3h-60.7l30.4 30.4 30.3-30.4ZM173.7 908.7 143.3 939l30.4 30.3v-60.7ZM487.3 852.6v59.6c0 10.5-8.6 19.1-19.1 19.1v39h12.5a26 26 0 0 0 33.3 0h12.5v-39a19.2 19.2 0 0 1-19.2-19.1v-59.6m-10 114.4a17.5 17.5 0 0 1-1.9-34.8h.7l.9-.1h.3l2.2.1.7.1a17.5 17.5 0 0 1-2.9 34.8Z"/>
  <path stroke="#158B58" stroke-miterlimit="10" stroke-width="3" d="M526.5 855.5v-32.8H468v32.8c19.6-4.3 39-4.3 58.4 0Zm-35.8-17.8c0-3.7 3-6.7 6.7-6.6 3.8 0 6.6 2.9 6.6 6.7 0 3.7-3 6.7-6.8 6.6-3.6-.1-6.5-3-6.5-6.7ZM526.5 814.6H468v8.1h58.4v-8.1ZM526.5 806.5H468v8.1h58.4v-8.1ZM479.8 949.6h-11.6M526.5 949.6h-11.7M272.4 916H267v-4.4h-8.6v4.4h-5.5v-4.4h-8.5v4.4h-5.5v-4.4h-8.6v4.4h-3l-1.6.1-.8-4-8.4 1.8.9 4.1-3.2 1.6-3.1-3.6-6.5 5.6 3 3.4-1.8 2.3-4-1.8-3.4 7.9 3.7 1.6-.6 2.9h-4.2v8.6h4.2c.1 1 .4 2 .6 2.9l-3.7 1.6 3.4 7.9 4-1.8a27 27 0 0 0 1.8 2.2l-3 3.4 6.5 5.7 3-3.6 3.3 1.6-1 4 8.5 1.9.8-4h4.6v4.4h8.6v-4.4h5.5v4.4h8.5v-4.4h5.5v4.4h8.6v-4.4h5.4"/>
  <path stroke="#158B58" stroke-miterlimit="10" stroke-width="3" d="M267.2 968.3h5.4v4.5h8.6v-4.5h5.4v4.5h8.6v-4.5h5.5v4.5h8.6v-4.5h4.5l1 4 8.3-1.8-.9-4.1a26 26 0 0 0 3.2-1.6l3 3.6 6.6-5.6-3-3.4 1.8-2.3 4 1.8 3.4-7.9-3.7-1.6.6-2.9h4.2v-8.6h-4.2l-.6-2.9 3.7-1.6-3.5-7.9-4 1.8c-.5-.8-1-1.5-1.7-2.2l3-3.4-6.5-5.7-3.1 3.6-3.2-1.6.9-4-8.4-1.9-.9 4h-4.5v-4.4h-8.6v4.4h-5.5v-4.4h-8.6v4.4h-5.4v-4.4h-8.6v4.4h-5.4"/>
  <path stroke="#158B58" stroke-miterlimit="10" stroke-width="3" d="M228.2 961.2a19 19 0 0 1 0-38H311a19 19 0 0 1 0 38h-82.7Z"/>
  <path stroke="#158B58" stroke-miterlimit="10" stroke-width="3" d="M310.5 930.6a11.6 11.6 0 1 1 0 23.2 11.6 11.6 0 0 1 0-23.2ZM229.7 953.8a11.6 11.6 0 1 0 0-23.2 11.6 11.6 0 0 0 0 23.2ZM270.1 953.8a11.6 11.6 0 1 0 0-23.2 11.6 11.6 0 0 0 0 23.2ZM182.8 764.8l42 52.6h30.9c8.4 0 15.2 6.8 15.2 15.2v25h39.6l18.1 18v26.8H211v-67.1l-39.7-49.6M132 841.8l46 6.6 9.8-8.6c3 2.1 3.6 6.2 1.5 9.1l-3.6 5-10.7 14.6-14 19.2c-5.4 7.3-15.7 8.9-23 3.5l-30.6-22.4c-7.4-5.4-9-15.8-3.6-23.3l5.2-7"/>
  <path stroke="#158B58" stroke-miterlimit="10" stroke-width="3" d="M106.4 844c.8-4.7 4.3-8.2 8.6-9.3l45.5-65.2a11.5 11.5 0 0 1 13.5-11.8 11.6 11.6 0 0 1 1 22.5l-3.8 5.5-41.7 59.7-.1 2.5a11.6 11.6 0 0 1-23-4Z"/>
  <path stroke="#158B58" stroke-miterlimit="10" stroke-width="3" d="M117.9 851.2a5.1 5.1 0 1 0 0-10.3 5.1 5.1 0 0 0 0 10.3ZM171.9 773.9a5 5 0 1 0 0-10.2 5 5 0 0 0 0 10.2ZM210.9 857.6h60v-22.3h-60v22.3ZM37.7 923.8h6.1a18.2 18.2 0 0 0 35.7-5.5 18.3 18.3 0 0 0-35.7-5.6H33.4a5.7 5.7 0 0 0-5.7 5.6 7.4 7.4 0 1 1-7.4-7.4v-11a18.3 18.3 0 1 0 17.4 24Zm30.9-5.5a7.4 7.4 0 1 1-14.8 0 7.4 7.4 0 0 1 14.8 0ZM57.8 806.5H23.7l-14 75.7h62.2l-14.1-75.7Zm-11.9 20 6.2-5.5 2.5 13.5-8.7-8Zm6.9 15.6-12 10-12-10 12-10.8 12 10.8Zm-12-20.2-8-7.2h15.9l-8 7.2Zm-5.2 4.7-8.7 7.9 2.5-13.5 6.2 5.6Zm-.3 30-14.9 12.6 4-21.6 11 9Zm5.4 4.6L56 874H25.5l15.2-12.8Zm5.4-4.5 11-9.1 4 21.6-15-12.5Z"/>
  <path stroke="#158B58" stroke-miterlimit="10" stroke-width="3" d="M57.8 806.5H23.7l-14 75.7h62.2l-14.1-75.7Zm-11.9 20 6.2-5.5 2.5 13.5-8.7-8Zm6.9 15.6-12 10-12-10 12-10.8 12 10.8Zm-12-20.2-8-7.2h15.9l-8 7.2Zm-5.2 4.7-8.7 7.9 2.5-13.5 6.2 5.6Zm-.3 30-14.9 12.6 4-21.6 11 9Zm5.4 4.6L56 874H25.5l15.2-12.8Zm5.4-4.5 11-9.1 4 21.6-15-12.5ZM445.6 865.7a46 46 0 0 0 1.7-5.2l-4.8-6a40 40 0 0 0 0-11.3l4.8-5.9c-.4-1.8-1-3.5-1.7-5.2l-7.3-2c-1.8-3.3-4-6.4-6.7-9.1l.4-7.6a45.9 45.9 0 0 0-4.4-3.2l-7 2.7c-3.4-1.7-7-2.8-10.9-3.5l-4.1-6.4h-5.4l-4.2 6.4a40 40 0 0 0-10.8 3.5l-7-2.8c-1.6 1-3 2-4.5 3.2l.4 7.6a39.8 39.8 0 0 0-6.7 9.2l-7.3 2c-.7 1.6-1.3 3.3-1.8 5.1l4.9 6a40 40 0 0 0 0 11.3l-4.9 5.9c.5 1.8 1 3.5 1.7 5.2l7.4 2c1.8 3.3 4 6.4 6.7 9.1l-.5 7.6c1.4 1.2 2.9 2.2 4.4 3.2l7-2.7a40 40 0 0 0 11 3.5l4 6.4h5.5l4.1-6.4c3.8-.6 7.5-1.8 10.9-3.5l7 2.8c1.6-1 3-2 4.5-3.2l-.5-7.6c2.7-2.7 5-5.8 6.7-9.2l7.4-2Z"/>
  <path stroke="#158B58" stroke-miterlimit="10" stroke-width="3" d="M402.8 875.6a26.8 26.8 0 1 0 0-53.6 26.8 26.8 0 0 0 0 53.6ZM379.1 922h47.4a8.6 8.6 0 1 0 0-17.1h-47.4a8.6 8.6 0 1 0 0 17.1Z"/>
  <path stroke="#158B58" stroke-miterlimit="10" stroke-width="3" d="m375.3 921.2 16.9 9h34.3c1.4 0 2.7.3 3.8 1l-1-.8-16-8.5h-34.2a8.6 8.6 0 0 1-7-3.6 8.6 8.6 0 0 0 3.2 2.9Z"/>
  <path stroke="#158B58" stroke-miterlimit="10" stroke-width="3" d="M379.1 947.3h47.4c4.8 0 8.6-3.8 8.6-8.5 0-4.8-3.8-8.6-8.6-8.6h-47.4a8.6 8.6 0 1 0 0 17.1ZM379.1 972.8h47.4a8.6 8.6 0 1 0 0-17.1h-47.4a8.6 8.6 0 1 0 0 17.1Z"/>
  <path stroke="#158B58" stroke-miterlimit="10" stroke-width="3" d="M413.5 947.3H379c-4.1 0-7.6-2.9-8.4-6.8.5 2.5 2 4.7 4.4 6l17.2 9.1h34.2c1.4 0 2.8.4 4 1l-1.4-1-15.6-8.3ZM646.9 969.4l30.4-30.3-30.4-30.4v60.7ZM680.6 942.4l-30.4 30.4H711l-30.4-30.4ZM711 905.3h-60.8l30.4 30.4 30.4-30.4ZM714.3 908.7 683.9 939l30.4 30.3v-60.7ZM1028 852.6v59.6c0 10.5-8.6 19.1-19.2 19.1v39h12.5a26 26 0 0 0 33.3 0h12.5v-39a19.2 19.2 0 0 1-19.2-19.1v-59.6m-10 114.4a17.5 17.5 0 0 1-1.9-34.8h.7l.9-.1H1037.9l2.3.1.6.1a17.5 17.5 0 0 1-2.9 34.8Z"/>
  <path stroke="#158B58" stroke-miterlimit="10" stroke-width="3" d="M1067 855.5v-32.8h-58.3v32.8c19.6-4.3 39-4.3 58.4 0Zm-35.7-17.8c0-3.7 3-6.7 6.7-6.6 3.8 0 6.6 2.9 6.6 6.7 0 3.7-3 6.7-6.8 6.6-3.6-.1-6.5-3-6.5-6.7ZM1067 814.6h-58.3v8.1h58.4v-8.1ZM1067 806.5h-58.3v8.1h58.4v-8.1ZM1020.4 949.6h-11.6M1067 949.6h-11.6M813 916h-5.4v-4.4H799v4.4h-5.4v-4.4H785v4.4h-5.5v-4.4H771v4.4h-3l-1.5.1-1-4-8.3 1.8.9 4.1-3.2 1.6-3-3.6-6.6 5.6 3 3.4-1.8 2.3-4-1.8-3.4 7.9 3.7 1.6-.6 2.9H738v8.6h4.2l.6 2.9-3.7 1.6 3.5 7.9 4-1.8a27 27 0 0 0 1.7 2.2l-3 3.4 6.5 5.7 3.1-3.6 3.2 1.6-.9 4 8.4 1.9.9-4h4.5v4.4h8.6v-4.4h5.5v4.4h8.6v-4.4h5.4v4.4h8.6v-4.4h5.4"/>
  <path stroke="#158B58" stroke-miterlimit="10" stroke-width="3" d="M807.8 968.3h5.4v4.5h8.6v-4.5h5.5v4.5h8.5v-4.5h5.5v4.5h8.6v-4.5h4.6l.8 4 8.4-1.8-.9-4.1a26 26 0 0 0 3.2-1.6l3.1 3.6 6.5-5.6-3-3.4 1.8-2.3 4 1.8 3.4-7.9-3.7-1.6.6-2.9h4.3v-8.6h-4.3c-.1-1-.4-2-.6-2.9l3.7-1.6-3.4-7.9-4 1.8-1.8-2.2 3-3.4-6.5-5.7-3 3.6-3.3-1.6 1-4-8.5-1.9-.8 4h-4.6v-4.4h-8.6v4.4h-5.5v-4.4h-8.5v4.4h-5.5v-4.4h-8.6v4.4h-5.4"/>
  <path stroke="#158B58" stroke-miterlimit="10" stroke-width="3" d="M768.8 961.2a19 19 0 0 1 0-38h82.7a19 19 0 0 1 0 38h-82.7Z"/>
  <path stroke="#158B58" stroke-miterlimit="10" stroke-width="3" d="M851.2 930.6a11.6 11.6 0 1 1 0 23.2 11.6 11.6 0 0 1 0-23.2ZM770.4 953.8a11.6 11.6 0 1 0 0-23.2 11.6 11.6 0 0 0 0 23.2ZM810.8 953.8a11.6 11.6 0 1 0 0-23.2 11.6 11.6 0 0 0 0 23.2ZM723.5 764.8l42 52.6H796.3c8.4 0 15.3 6.8 15.3 15.2v25h39.6l18 18v26.8H751.5v-67.1l-39.6-49.6"/>
  <path stroke="#158B58" stroke-miterlimit="10" stroke-width="3" d="m672.6 841.8 46 6.6 9.9-8.6c3 2.1 3.6 6.2 1.4 9.1l-3.6 5-10.7 14.6-14 19.2c-5.4 7.3-15.7 8.9-23 3.5L648 868.8c-7.4-5.4-9-15.8-3.6-23.3l5.2-7"/>
  <path stroke="#158B58" stroke-miterlimit="10" stroke-width="3" d="M647 844c.8-4.7 4.3-8.2 8.6-9.3l45.5-65.2a11.5 11.5 0 0 1 13.6-11.8 11.6 11.6 0 0 1 1 22.5l-3.8 5.5-41.8 59.7-.1 2.5a11.6 11.6 0 0 1-23-4Z"/>
  <path stroke="#158B58" stroke-miterlimit="10" stroke-width="3" d="M658.5 851.2a5.1 5.1 0 1 0 0-10.3 5.1 5.1 0 0 0 0 10.3ZM712.5 773.9a5 5 0 1 0 0-10.2 5 5 0 0 0 0 10.2ZM751.5 857.6h60v-22.3h-60v22.3ZM578.3 923.8h6.2a18.2 18.2 0 0 0 35.6-5.5 18.3 18.3 0 0 0-35.6-5.6H574a5.7 5.7 0 0 0-5.7 5.6 7.4 7.4 0 1 1-7.4-7.4v-11a18.3 18.3 0 1 0 17.4 24Zm31-5.5a7.4 7.4 0 1 1-14.9 0 7.4 7.4 0 0 1 14.8 0ZM598.4 806.5h-34l-14.2 75.7h62.3l-14-75.7Zm-11.9 20 6.2-5.5 2.5 13.5-8.7-8Zm6.9 15.6-12 10-12-10 12-10.8 12 10.8Zm-12-20.2-8-7.2h16l-8 7.2Zm-5.2 4.7-8.7 7.9L570 821l6.2 5.6Zm-.2 30-15 12.6 4-21.6 11 9Zm5.4 4.6 15.2 12.8h-30.5l15.3-12.8Zm5.4-4.5 10.9-9.1 4 21.6-15-12.5Z"/>
  <path stroke="#158B58" stroke-miterlimit="10" stroke-width="3" d="M598.4 806.5h-34l-14.2 75.7h62.3l-14-75.7Zm-11.9 20 6.2-5.5 2.5 13.5-8.7-8Zm6.9 15.6-12 10-12-10 12-10.8 12 10.8Zm-12-20.2-8-7.2h16l-8 7.2Zm-5.2 4.7-8.7 7.9L570 821l6.2 5.6Zm-.2 30-15 12.6 4-21.6 11 9Zm5.4 4.6 15.2 12.8h-30.5l15.3-12.8Zm5.4-4.5 10.9-9.1 4 21.6-15-12.5ZM986.2 865.7a46 46 0 0 0 1.7-5.2l-4.8-6a40 40 0 0 0 0-11.3l4.8-5.9c-.4-1.8-1-3.5-1.7-5.2l-7.3-2c-1.8-3.3-4-6.4-6.7-9.1l.5-7.6a45.9 45.9 0 0 0-4.4-3.2l-7.1 2.7c-3.4-1.7-7-2.8-10.9-3.5l-4-6.4h-5.5l-4.2 6.4a40 40 0 0 0-10.8 3.5l-7-2.8c-1.6 1-3 2-4.5 3.2l.4 7.6a39.8 39.8 0 0 0-6.7 9.2l-7.3 2c-.7 1.6-1.3 3.3-1.7 5.1l4.8 6a40 40 0 0 0 0 11.3l-4.8 5.9c.4 1.8 1 3.5 1.7 5.2l7.3 2c1.8 3.3 4 6.4 6.7 9.1l-.5 7.6c1.4 1.2 2.9 2.2 4.4 3.2l7.1-2.7a40 40 0 0 0 10.9 3.5l4 6.4h5.5l4.2-6.4c3.7-.6 7.4-1.8 10.8-3.5l7 2.8c1.6-1 3-2 4.5-3.2l-.4-7.6c2.6-2.7 4.8-5.8 6.6-9.2l7.4-2Z"/>
  <path stroke="#158B58" stroke-miterlimit="10" stroke-width="3" d="M943.4 875.6a26.8 26.8 0 1 0 0-53.6 26.8 26.8 0 0 0 0 53.6ZM919.7 922h47.4a8.6 8.6 0 1 0 0-17.1h-47.4a8.6 8.6 0 1 0 0 17.1Z"/>
  <path stroke="#158B58" stroke-miterlimit="10" stroke-width="3" d="m916 921.2 16.8 9h34.3c1.4 0 2.7.3 3.9 1l-1.1-.8-16-8.5h-34.2a8.6 8.6 0 0 1-7-3.6 8.6 8.6 0 0 0 3.2 2.9Z"/>
  <path stroke="#158B58" stroke-miterlimit="10" stroke-width="3" d="M919.7 947.3h47.4c4.8 0 8.6-3.8 8.6-8.5 0-4.8-3.8-8.6-8.6-8.6h-47.4a8.6 8.6 0 1 0 0 17.1ZM919.7 972.8h47.4a8.6 8.6 0 1 0 0-17.1h-47.4a8.6 8.6 0 1 0 0 17.1Z"/>
  <path stroke="#158B58" stroke-miterlimit="10" stroke-width="3" d="M954 947.3h-34.3c-4 0-7.5-2.9-8.3-6.8.4 2.5 2 4.7 4.4 6l17.1 9.1h34.2c1.5 0 2.8.4 4 1l-1.4-1-15.6-8.3Z"/>
</svg>
