<svg xmlns="http://www.w3.org/2000/svg" fill="none" viewBox="0 0 62 32">
  <path fill="#000"
    d="M62 25H0v-5.5h2.4v3.2h57.2v-3.2H62v5.6ZM6.8 32a3 3 0 1 0 0-6.1 3 3 0 0 0 0 6.1ZM55.2 32a3 3 0 1 0 0-6.1 3 3 0 0 0 0 6.1ZM11 9.3V.2h7V2h-4.6v2h4.1v1.8h-4v3.5H11ZM17.5 9.3 20.9.2h2.9l3.4 9h-2.5L24 7.8h-3.6l-.6 1.6h-2.4Zm3.6-3.4h2.5l-.7-2a13.9 13.9 0 0 1-.3-.7l-.1-.5-.1-.5h-.1l-.2.6-.2.6-.2.6-.6 2ZM27.8 9.3V.2h2.4v9h-2.4ZM31.8 9.3V.2h2l3.4 4.2a7 7 0 0 1 .8 1V.2h2.2v9h-2l-3.6-4.4A6 6 0 0 1 34 4v5.3h-2.2ZM46.1 9.4c-1 0-1.8-.2-2.5-.5s-1.3-.9-1.7-1.6c-.3-.7-.5-1.5-.5-2.6 0-1 .2-2 .5-2.6.4-.7 1-1.2 1.7-1.6.7-.3 1.5-.5 2.6-.5 1 0 1.8.2 2.5.5.7.4 1.3 1 1.7 1.6.3.7.5 1.6.5 2.6s-.2 2-.5 2.6c-.4.7-1 1.3-1.7 1.6-.7.3-1.5.5-2.6.5Zm0-1.8c.4 0 .7 0 1-.2A2 2 0 0 0 48.4 6l.2-1v-.7c0-.3 0-.7-.2-1 0-.4-.2-.6-.4-.9a2 2 0 0 0-.7-.5c-.4 0-.7-.2-1-.1l-1 .1c-.4.1-.6.3-.8.5-.2.3-.4.5-.4.8l-.2 1.1V5c0 .4 0 .7.2 1 0 .4.2.7.4.9l.7.5 1 .2Z" />
  <path fill="#000"
    d="M4.4 20.3v-9.1h3.8c1 0 1.9.1 2.6.4.6.4 1.2.9 1.5 1.5.4.7.6 1.6.6 2.6s-.2 1.9-.6 2.6c-.3.6-.9 1.1-1.6 1.5-.6.3-1.5.5-2.5.5H4.4Zm2.4-1.9h1.4c.3 0 .7 0 1-.2a1.8 1.8 0 0 0 1-1.2c.2-.3.2-.7.2-1v-.6l-.1-1-.4-.8-.7-.4-1-.2H6.8v5.4ZM14 20.3v-9.1h7.6V13h-5.2v1.7h4.5v1.8h-4.5v1.9h5.2v1.9H14ZM22 20.3l3.4-9.1h2.8l3.4 9h-2.5l-.5-1.5h-3.7l-.5 1.6h-2.5Zm3.5-3.4H28l-.7-2a13.2 13.2 0 0 1-.2-.7l-.2-.5-.1-.5h-.1l-.2.6a776.3 776.3 0 0 0-.3 1.2l-.7 1.9ZM32.3 20.3v-9.1h2.4v7.1h4.6v2h-7ZM40.1 20.3v-9.1h7.6V13h-5.2v1.7H47v1.8h-4.5v1.9h5.3v1.9H40ZM49 20.3v-9.1h5.2c.7 0 1.3 0 1.7.3.5.3.8.6 1 1 .3.5.4 1 .4 1.5a2.8 2.8 0 0 1-1.5 2.6l1.8 3.7h-2.7L53.4 17h-2v3.3h-2.5Zm2.3-5h2.5c.3 0 .6-.1.8-.3.2-.3.3-.5.3-1 0-.1 0-.3-.2-.5a1 1 0 0 0-.3-.4l-.6-.2h-2.5v2.4Z" />
</svg>