<svg xmlns="http://www.w3.org/2000/svg" fill="none" viewBox="0 0 865 375">
  <path fill="#000" d="M147.9 340.9H0v-31.6h13.6v18h120.8v-18h13.5v31.6ZM25.8 375a14.7 14.7 0 1 0 0-29.4 14.7 14.7 0 0 0 0 29.4ZM122.1 375a14.7 14.7 0 1 0 0-29.4 14.7 14.7 0 0 0 0 29.4Z"/>
  <path stroke="#fff" stroke-miterlimit="10" stroke-width="3" d="M451.2 232h-7.9v-6.5h-12.5v6.4H423v-6.4h-12.5v6.4h-7.9v-6.4H390v6.4h-4.4l-2.2.1-1.3-5.8-12.2 2.6 1.3 6c-1.6.6-3.1 1.4-4.6 2.2L362 232l-9.4 8.1 4.3 5c-1 1-1.8 2-2.6 3.2l-5.8-2.6-5 11.4 5.5 2.4c-.4 1.4-.8 2.8-1 4.2H342V276h6.1c.2 1.5.6 2.8 1 4.2l-5.5 2.4 5 11.4 5.8-2.5 2.6 3.2-4.3 5 9.4 8 4.5-5c1.5.8 3 1.6 4.6 2.2l-1.3 6 12.2 2.6 1.3-5.9 2.2.1h4.4v6.4h12.5v-6.4h8v6.4h12.4v-6.4h8v6.4h12.4v-6.4h8"/>
  <path stroke="#fff" stroke-miterlimit="10" stroke-width="3" d="M443.6 307.7h7.9v6.4H464v-6.4h7.9v6.4h12.5v-6.4h7.9v6.4h12.5v-6.4H511.4l1.3 5.8 12.2-2.6-1.3-6c1.6-.6 3.1-1.4 4.6-2.3l4.5 5.2 9.4-8.2-4.3-4.9c1-1 1.8-2.1 2.6-3.2l5.7 2.5 5-11.3-5.4-2.5 1-4.1h6.1v-12.5h-6.1l-1-4.2 5.5-2.4-5-11.4-5.8 2.6-2.6-3.2 4.3-5-9.4-8.1-4.5 5.1-4.6-2.3 1.2-6-12.1-2.6-1.3 6-2.2-.2h-4.5v-6.4h-12.4v6.4h-8v-6.4H472v6.4h-8v-6.4h-12.4v6.4h-8"/>
  <path stroke="#fff" stroke-miterlimit="10" stroke-width="3" d="M387 297.4a27.7 27.7 0 0 1-27.3-27.6 27.5 27.5 0 0 1 27.3-27.5h120.2a27.7 27.7 0 0 1 25.8 38.2 27.6 27.6 0 0 1-25.8 16.9H387Z"/>
  <path stroke="#fff" stroke-miterlimit="10" stroke-width="3" d="M506.6 253a16.8 16.8 0 0 1 16.5 20 16.8 16.8 0 0 1-23 12.3 16.8 16.8 0 0 1 6.5-32.2ZM389.2 286.6a16.8 16.8 0 1 0 0-33.6 16.8 16.8 0 0 0 0 33.6ZM447.9 286.6a16.8 16.8 0 1 0 0-33.6 16.8 16.8 0 0 0 0 33.6ZM321 12.6 382 89h45a22.2 22.2 0 0 1 22 22v36.3h57.6l26.3 26.1v38.9h-171v-65h-.1v-32.4L304.2 43"/>
  <path stroke="#fff" stroke-miterlimit="10" stroke-width="3" d="m247.2 124.3 66.9 9.6 14.2-12.6a9.5 9.5 0 0 1 2.1 13.3l-5.2 7.2-15.5 21.1-20.5 27.8a23.8 23.8 0 0 1-33.4 5.2l-44.4-32.4a24.2 24.2 0 0 1-5.2-33.8l7.5-10.2"/>
  <path stroke="#fff" stroke-miterlimit="10" stroke-width="3" d="M210 127.4a16.8 16.8 0 0 1 12.4-13.5l66.2-94.4a16.7 16.7 0 0 1 18-17.5A16.9 16.9 0 0 1 322 22a16.8 16.8 0 0 1-12.3 13l-5.5 8-60.6 86.5a16.8 16.8 0 0 1-18 17.5 17 17 0 0 1-15.6-19.6Z"/>
  <path stroke="#fff" stroke-miterlimit="10" stroke-width="3" d="M226.7 137.8a7.5 7.5 0 1 0 0-14.9 7.5 7.5 0 0 0 0 15ZM305.1 25.8a7.4 7.4 0 1 0 0-14.7 7.4 7.4 0 0 0 0 14.7ZM361.8 147.2H449v-32.4h-87.3v32.4ZM196 309.3l44-44-44-44v88ZM245 270l-44.2 44.1H289l-44.2-44ZM289 216.4h-88.2l44.1 44 44.2-44ZM293.9 221.2l-44.1 44 44.1 44v-88ZM726.4 158.8c1-2.4 1.8-4.9 2.5-7.4l-7-8.6c.8-5.5.8-11 0-16.5l7-8.6c-.7-2.5-1.5-5-2.5-7.5l-10.7-2.8a58.2 58.2 0 0 0-9.7-13.3l.7-11c-2-1.7-4.2-3.3-6.4-4.7l-10.3 4c-5-2.5-10.3-4.2-15.8-5.1l-6-9.3c-2.6-.2-5.2-.2-7.9 0l-6 9.2c-5.4 1-10.7 2.7-15.7 5.1l-10.3-4c-2.2 1.5-4.4 3-6.4 4.7l.6 11c-3.9 4-7.2 8.4-9.7 13.3l-10.8 2.8c-1 2.4-1.8 5-2.4 7.5l7 8.6c-.8 5.4-.9 11 0 16.5l-7 8.5c.6 2.6 1.5 5 2.4 7.5l10.7 2.8c2.6 5 5.9 9.4 9.7 13.4l-.6 11c2 1.7 4.2 3.2 6.4 4.7l10.2-4c5 2.4 10.3 4.2 15.8 5l6 9.4c2.6.2 5.3.2 8 0l6-9.3a58 58 0 0 0 15.7-5l10.2 4c2.3-1.5 4.4-3 6.5-4.8l-.7-10.9c4-4 7.2-8.4 9.8-13.3l10.7-2.9Z"/>
  <path stroke="#fff" stroke-miterlimit="10" stroke-width="3" d="M664.2 173.3a38.9 38.9 0 1 0 .1-77.8 38.9 38.9 0 0 0 0 77.8ZM83.7 131.1v-9a26.6 26.6 0 1 0-16.2 0v15.2a8.2 8.2 0 0 0 8.1 8.2 10.8 10.8 0 0 1 10.6 12.8 10.7 10.7 0 0 1-14.7 7.9 10.7 10.7 0 0 1-6.7-10H49a26.5 26.5 0 0 0 28.6 26.6 26.7 26.7 0 0 0 24.3-30.6A26.5 26.5 0 0 0 83.7 131Zm-8.1-44.8A10.8 10.8 0 0 1 86 99a10.7 10.7 0 0 1-14.6 7.8 10.8 10.8 0 0 1 4-20.6ZM99.6 198.6H47.4L25.8 314h95.3L99.6 198.6Zm-18.2 30.6 9.4-8.6 3.9 20.6-13.3-12ZM91.8 253l-18.3 15.4L55 252.9l18.4-16.6L91.8 253Zm-18.3-30.8-12.2-11h24.3l-12.1 11Zm-8 7.1-13.2 12 3.8-20.5 9.5 8.5Zm-.3 46-22.8 19 6.1-33 16.7 14Zm8.3 6.9 23.4 19.5H50l23.4-19.5Zm8.2-7 16.7-13.9 6.2 33-22.9-19ZM777 140v86.3a27.8 27.8 0 0 1-27.8 27.8v56.3h18.2a38 38 0 0 0 48.4 0h18.1v-56.3a27.9 27.9 0 0 1-27.8-27.8V140m-14.5 165.9a25.5 25.5 0 0 1-23.2-36 25.4 25.4 0 0 1 20.4-14.6l1-.1h1.8a25.8 25.8 0 0 1 20 9.7 25.3 25.3 0 0 1-20 41Z"/>
  <path stroke="#fff" stroke-miterlimit="10" stroke-width="3" d="M834 144V96.7h-84.8v47.6c27.9-6.3 56.8-6.4 84.7-.1Zm-52-25.7a9.7 9.7 0 0 1 9.7-9.6c5.5 0 9.6 4.3 9.5 9.8a9.5 9.5 0 0 1-9.8 9.5 9.7 9.7 0 0 1-9.5-9.7ZM834 84.8h-84.8v11.8h84.7V84.8ZM834 73h-84.8v11.8h84.7V73.1ZM766.2 280.5h-17M834 280.5h-17M629.8 240.4h68.9a12.4 12.4 0 0 0 0-24.8h-69a12.4 12.4 0 0 0 0 24.8Z"/>
  <path stroke="#fff" stroke-miterlimit="10" stroke-width="3" d="m624.2 239.4 24.6 13h49.9c1.9 0 3.8.5 5.5 1.3l-1.6-1-23-12.3h-49.8a12.4 12.4 0 0 1-10.2-5.3c1.2 1.8 2.8 3.3 4.6 4.3Z"/>
  <path stroke="#fff" stroke-miterlimit="10" stroke-width="3" d="M629.8 277.3h68.9a12.4 12.4 0 0 0 0-24.8h-69a12.4 12.4 0 0 0 0 24.8ZM629.8 314.1h68.9a12.4 12.4 0 0 0 0-24.8h-69a12.4 12.4 0 0 0 0 24.8Z"/>
  <path stroke="#fff" stroke-miterlimit="10" stroke-width="3" d="M679.7 277.3h-49.9a12.5 12.5 0 0 1-12.2-9.9 12.5 12.5 0 0 0 6.4 8.6l25 13.3h49.7c2 0 4 .5 5.7 1.4-.6-.5-1.3-1-2-1.3l-22.7-12.1Z"/>
  <path fill="#000" d="M316.9 340.9H169v-31.6h13.6v18h120.8v-18h13.5v31.6ZM194.8 375a14.7 14.7 0 1 0 0-29.4 14.7 14.7 0 0 0 0 29.4ZM291.1 375a14.7 14.7 0 1 0 0-29.4 14.7 14.7 0 0 0 0 29.4ZM865 340.9H586.8v-31.6h13.5v18h251.2v-18H865v31.6ZM612.6 375a14.7 14.7 0 1 0 0-29.4 14.7 14.7 0 0 0 0 29.4ZM839.5 375a14.7 14.7 0 1 0 0-29.4 14.7 14.7 0 0 0 0 29.4ZM565.7 340.9H338v-31.6h13.6v18H552v-18h13.6v31.6ZM363.8 375a14.7 14.7 0 1 0 0-29.4 14.7 14.7 0 0 0 0 29.4ZM539.6 375a14.7 14.7 0 1 0 0-29.4 14.7 14.7 0 0 0 0 29.4Z"/>
</svg>
