<svg xmlns="http://www.w3.org/2000/svg" fill="none" viewBox="0 0 424 90">
  <path fill="#000"
    d="M424 71.3H272V54h7.3v10h137.3V54h7.4v17.3ZM286 90.1a8 8 0 1 0 0-16 8 8 0 0 0 0 16Zm124 0a8 8 0 1 0 0-16 8 8 0 0 0 0 16ZM260.4 71.3H136V54h7.4v10H253V54h7.4v17.3ZM150 90.1a8 8 0 1 0 0-16 8 8 0 0 0 0 16Zm96.1 0a8 8 0 1 0 0-16 8 8 0 0 0 0 16ZM124.4 71.3H0V54h7.4v10H117V54h7.4v17.3ZM14 90.1a8 8 0 1 0 0-16 8 8 0 0 0 0 16Zm96.1 0a8 8 0 1 0 0-16 8 8 0 0 0 0 16Z" />
  <path stroke="#26B373" stroke-miterlimit="10" stroke-width="2"
    d="m286.5 56 26.4-26.5-26.4-26.6v53Zm29.3-23.6-26.4 26.5h52.8l-26.4-26.5ZM342.2 0h-52.8l26.4 26.5L342.2 0Zm2.8 3-26.3 26.5L345 56V3ZM149.6 56.6 170.2 36l-20.6-20.6v41.2Zm22.8-18.3L152 58.9h41l-20.5-20.6ZM193 13h-41.1l20.5 20.7L193 13.1Zm2.2 2.4L174.7 36l20.5 20.6V15.4ZM14 56.6 34.5 36 14 15.4v41.2Zm22.8-18.3L16.3 58.9h41L36.8 38.3ZM57.3 13h-41l20.5 20.7 20.5-20.6Zm2.3 2.4L39 36l20.6 20.6V15.4Zm292 40.6L378 29.5 351.6 2.9v53Zm29.3-23.6-26.4 26.5h52.8l-26.4-26.5ZM407.3 0h-52.8l26.4 26.5L407.3 0Zm2.9 3-26.4 26.5L410.2 56V3ZM200.3 56.6 220.8 36l-20.5-20.6v41.2ZM223 38.3l-20.5 20.6h41L223 38.3ZM243.6 13h-41L223 33.8l20.6-20.6Zm2.2 2.4L225.3 36l20.5 20.6V15.4ZM64.6 56.6 85.1 36 64.6 15.4v41.2Zm22.8-18.3L66.9 58.9h41L87.4 38.3ZM108 13H66.8l20.5 20.7 20.5-20.6Zm2.2 2.4L89.7 36l20.5 20.6V15.4Z" />
</svg>