<svg xmlns="http://www.w3.org/2000/svg" fill="none" viewBox="0 0 48 48">
  <path fill="#26B373" d="M41.3 24.7h-1.1V11.2c0-1.4-1-2.4-2.4-2.5V7.5c0-1-.7-1.7-1.7-1.7h-1.3c-1 0-1.7.8-1.7 1.7v1.2h-1.3V6.5C31.8 5 30.7 4 29.3 4h-9.6a2.5 2.5 0 0 0-2.5 2.5v2.2h-1.3V7.5c0-1-.8-1.7-1.7-1.7h-1.4c-.9 0-1.7.8-1.7 1.7v1.2h-.8a2.5 2.5 0 0 0-2.5 2.5v13.5H6.7a3 3 0 0 0-3.1 3.1V41c0 1.7 1.4 3.1 3 3.1h34.7c1.7 0 3.1-1.4 3.1-3.1v-13c0-1.8-1.4-3.2-3-3.2Zm-7-17.2c0-.2.2-.4.5-.4H36c.3 0 .5.2.5.4v1.2h-2.3V7.5Zm-15.9-1c0-.7.6-1.3 1.3-1.3h9.6c.7 0 1.2.6 1.2 1.3v2.2h-12V6.5Zm-6 1c0-.2.2-.4.4-.4h1.4c.2 0 .5.2.5.4v1.2h-2.3V7.5ZM9 11.2c0-.7.5-1.3 1.2-1.3h27.4c.7 0 1.2.6 1.2 1.3v13.5h-1.8v-11c0-1-.8-2-1.9-2H12.8c-1 0-1.9.9-1.9 2v11H9.1V11.2Zm17.6 11.3a4 4 0 0 1-1.5-6.3v2.6l.3.6 2.5 1h.5l2.5-1c.2-.1.4-.4.4-.6v-2.6a4 4 0 0 1-1.6 6.3c-.2.1-.4.3-.4.6v1.6h-2.3v-1.6c0-.3-.1-.5-.4-.6Zm4 1a5.3 5.3 0 0 0 .4-9.2.6.6 0 0 0-1 .5v3.6l-1.8.8-2-.8v-3.6c0-.2 0-.4-.2-.5a.6.6 0 0 0-.7 0 5.3 5.3 0 0 0 .4 9.2v1.2h-6V21l.7-2.4v-.3l-1.2-3.7c-.1-.2-.4-.4-.6-.4h-2.4c-.3 0-.5.2-.6.4l-1.2 3.7v.3L15 21v3.7h-3v-11c0-.4.3-.7.7-.7h22.4c.4 0 .6.3.6.6v11.1h-5.1v-1.2Zm-19 2.5h3.7v5.6c0 .4-.3.7-.7.7h-2.4a.6.6 0 0 1-.6-.7V26Zm4.6-1.3v-3.9l-.6-2.3 1-3h1.5l1 3-.5 2.3v3.9h-2.4ZM33.6 26h3.7v5.6c0 .4-.3.7-.6.7h-2.5a.6.6 0 0 1-.6-.7V26Zm9.6 14.9c0 1-.8 1.9-1.9 1.9H6.7c-1 0-1.9-.9-1.9-1.9v-13c0-1 .8-2 1.9-2h3.7v5.7c0 1 .9 1.9 2 1.9h2.3c1 0 2-.8 2-1.9V26h15.7v5.6c0 1 .8 1.9 1.8 1.9h2.5c1 0 1.8-.8 1.8-1.9V26h2.8c1 0 1.9.8 1.9 1.8V41Z"/>
</svg>
