<svg xmlns="http://www.w3.org/2000/svg" fill="none" viewBox="0 0 48 48">
  <path fill="#26B373" fill-rule="evenodd" d="M6.35 43.89h6.43c.36 0 .65.29.65.64v.58l3.3-2.3-3.3-2.29v.58c0 .36-.29.65-.65.65H8.01a3.55 3.55 0 0 1-3.54-3.5v-4.27H2.3v5.9a4.06 4.06 0 0 0 4.05 4v.01Zm5.78 1.29H6.35A5.36 5.36 0 0 1 1 39.88v-6.55c0-.36.3-.64.65-.64h3.47c.36 0 .65.28.65.64v4.9a2.25 2.25 0 0 0 2.24 2.21h4.12V39.3a.66.66 0 0 1 1.03-.53l5.06 3.54a.64.64 0 0 1 0 1.06l-5.03 3.5a.66.66 0 0 1-1.06-.5v-1.17ZM41.65 4.1h-6.43a.65.65 0 0 1-.65-.64v-.58l-3.3 2.3 3.3 2.29V6.9c0-.36.29-.65.65-.65h4.77a3.55 3.55 0 0 1 3.54 3.5v4.27h2.17V8.11a4.06 4.06 0 0 0-4.05-4Zm-5.78-1.29h5.78A5.36 5.36 0 0 1 47 8.12v6.55c0 .36-.3.64-.65.64h-3.47a.65.65 0 0 1-.65-.64v-4.9a2.25 2.25 0 0 0-2.24-2.21h-4.12V8.7a.65.65 0 0 1-1.03.53L29.8 5.7a.64.64 0 0 1 0-1.06l5.02-3.5a.66.66 0 0 1 1.06.5v1.17ZM29.6 21.55l2.76-1.58h.01l3.65-2.09v12.98l-11.37 6.49V24.37l4.93-2.81.02-.01ZM27.97 21 24 23.26l-11.38-6.5 3.97-2.25L27.97 21Zm-10.08-7.23 11.38 6.49 1.47-.85-11.38-6.49-1.37.79-.1.06Zm2.77-1.59 3.34-1.9 11.38 6.49-3.34 1.9-11.38-6.49Zm2.69 12.19v12.98l-11.37-6.49V17.88l11.37 6.49ZM24.37 39a.65.65 0 0 1-.73 0l-12.6-7.19a.64.64 0 0 1-.37-.58V16.77c0-.22.12-.44.33-.56l6.34-3.61 1.7-.97L23.65 9c.2-.13.47-.14.69-.02l12.63 7.21c.22.1.37.33.37.58v14.46c0 .22-.12.44-.33.56l-12.63 7.2Z" clip-rule="evenodd"/>
</svg>
