<svg xmlns="http://www.w3.org/2000/svg" fill="none" viewBox="0 0 48 48">
  <path fill="#26B373" d="M46.5 17.3h-21c-.4 0-.8.3-.8.7v5l-1.8-.4-2-2c2.2-2.2 2.4-6.6 2.4-7.9 2.7 0 4.7-.7 5.4-2 .3-.6.6-1.6-.3-2.9A3.8 3.8 0 0 0 25.1 6h-2.7a6 6 0 0 0-4.6-5l-2-.3c-7.9 0-9 3.8-9 6v3.8c0 .5.2 1.1.6 1.6-.4.4-.7 1.2-.7 2.2 0 1.8 1.3 2.6 2.5 2.9.3 1.1.9 2 1.4 2.6l-2.8 2.8c-.6.6.2 1.3.2 1.3l-3.3 3.3c-.3.3-3.2 3.3-3.2 5.8v.3l3.8 7.5.5.4s.7.2 1.7.2v4.3c0 .4.2.7.7.7.4 0 .7-.3.7-.7v-2.1c1.2 1.3 3 2.8 5.3 2.8A41.2 41.2 0 0 0 26.4 43l.5-.1v3c0 .4.3.7.8.7.4 0 .7-.3.7-.8v-3.3c1.4-.3 2.7-.5 3.8-.4h5.2c1.3 0 3-.5 3.6-1.8l.2-1.2h5.2c.5 0 .8-.3.8-.8V18c0-.4-.3-.8-.7-.8Zm-8.3 1.4v4.1l-1.9-1h-.6l-2 1v-4h4.5ZM16.4 23c0-.2-.4-.4-.4-.4a8 8 0 0 0 2.4-.4l-.3 1-.8 1.9-.8-2.1Zm3.7-1 1.6 1.5-.8 1.4-1.2-1.7.4-1.3Zm1.4-14.4c-.7.5-1.3 1.2-1.8 1.8-1.2 1.9-2.4 2-2.4 2h-4l.9-1.1c.9-1.3 2.5-2.7 3.9-2.7h3.4Zm5.8 1.2c.3.5.4 1 .2 1.3-.3.6-1.6 1.3-4.1 1.3h-.1a18 18 0 0 0-.6-2.9c.9-.5 1.7-.9 2.5-.9s1.5.4 2 1.2Zm-19-2C8.3 4 10.4 3 13 2.5a6.3 6.3 0 0 0-1.7 4.3c0 .4.4.7.8.7s.8-.3.8-.8c0-.4.1-4 3.8-4.4 3.2.3 4.1 2.6 4.3 3.7H18c-2 0-4 1.7-5.1 3.3-1.3 1.9-2.4 2-2.4 2H9c-.6 0-.8-.4-.8-.8V6.7Zm1.6 9c-.3 0-1.6 0-1.6-1.4s.7-1.6.8-1.6h8.3c.2 0 1.9 0 3.6-2.5l.5-.7c.1.7.4 1.8.4 3.3 0 .1.3 4.2-2 6.6-.9 1-2.3 1.6-4 1.6-.1 0-4 0-5.3-4.7-.2-.3-.4-.6-.8-.6Zm1.5 5.5 3.3 2.2-2 2.6-3.3-2.8 2-2ZM3 33c.1-1.6 2-3.9 2.8-4.6L9 25l3.1 2.6.5.1c.3 0 .4-.1.6-.3l2.1-2.7 1.1 2.5c.1.3.4.5.7.5.3 0 .6-.2.7-.5l1-2.4 1.4 1.9c.1.2.3.3.6.3s.5-.1.6-.4l1.2-2.5 1.9.5v12l-3.9 1.2-3.3 1.1c-1.3.5-2.8 0-3.4-1.3l-3-5c-.2-.4-.7-.4-1-.2-.4.2-.5.7-.3 1L12 37c-1.3 3.5-4.5 3.2-5.5 3l-3.4-7Zm36.6 6.7c-.2.6-1.3.9-2.1.9h-5.2c-2.4-.1-5 .6-6.3 1l-1.9.7c-3.5 1.2-7.8 2.8-9.9 2.8-2.6 0-4.4-2.7-5-3.7 1.2-.3 2.7-1 3.7-2.8a4.5 4.5 0 0 0 5.1 1.9l3.3-1.2c3.3-1.1 7.3-2.5 8.4-2.5H35c.2 0 .6.2.7.8h-2c-.4 0-.7.3-.7.8 0 .4.3.7.8.7h6l-.2.6Zm6.1-2.1h-8.5c0-1.6-1.4-2.3-2.3-2.3h-5.2c-.7 0-1.8.3-3.4.8V18.7h6V24c0 .2.1.5.3.7.3.1.5.1.8 0l2.7-1.4 2.7 1.4H39.4c.2-.2.4-.4.4-.7v-5.3h6v18.8Z"/>
  <path fill="#26B373" d="M32.3 32.3h-3c-.5 0-.8.3-.8.7 0 .5.3.8.8.8h3c.4 0 .7-.3.7-.8s-.3-.8-.8-.8ZM29.3 31.5h1.4c.5 0 .8-.3.8-.8 0-.4-.3-.7-.8-.7h-1.4c-.5 0-.8.3-.8.8 0 .4.3.7.8.7Z"/>
</svg>
