<svg xmlns="http://www.w3.org/2000/svg" fill="none" viewBox="0 0 48 48">
  <path fill="#26B373" d="m45.73 38.33-4.6-3.06L42 34c.2-.33.13-.73-.2-.93-.73-.47-1.47-.94-2.27-1.34 1-.93.8-2.2.47-3.53-.4-1.87-.33-2.07.93-3.47 2-2.2 2-3.26 0-5.46-1.26-1.4-1.33-1.54-.86-3.4.6-2.87.13-3.74-2.74-4.67-1.8-.6-1.93-.73-2.53-2.53-.33-1.07-.67-2.14-1.6-2.67-1.53-.87-3.73.4-4.93.07-.47-.14-1-.6-1.54-1.07-2.2-2-3.26-2-5.46 0-1.4 1.27-1.54 1.33-3.4.87-2.87-.6-3.74-.14-4.67 2.73-.6 1.8-.73 1.93-2.53 2.53-2.8.94-3.34 1.8-2.74 4.67.14.67.34 1.4.2 1.93C7.8 18.87 5.6 20.13 5.6 22c0 1.8 2.27 3.07 2.53 4.27.34 1.2-1 3.4-.06 5 .13.2.26.33.4.53-.74.4-1.54.87-2.27 1.33-.33.2-.4.6-.2.94l.87 1.26-4.6 3.07c-.47.27-.4.93.06 1.13l2.8 1.27.14 3.07c0 .53.6.8 1.06.53l5.14-3.4c.33-.2.4-.6.2-.93l-.8-1.27c1-.67 2.06-1.2 3.13-1.67.93 1.47 2.33 1.2 3.87.87 1.93-.4 2.06-.33 3.4.87 2.2 2 3.26 2 5.46 0 1.4-1.27 1.54-1.34 3.4-.87 1.4.27 2.87.6 3.87-.87 1.07.47 2.13 1 3.13 1.67l-.8 1.2c-.2.33-.13.73.2.93l5.14 3.4c.4.27 1 0 1.06-.53l.14-3.07 2.8-1.26c.4-.2.46-.87.06-1.14ZM9.2 30.53c-.53-.93.67-3.06.2-4.66-.4-1.54-2.53-2.8-2.53-3.94C6.87 20.8 9 19.6 9.4 18c.2-.8 0-1.67-.13-2.53-.47-2.2-.34-2.4 1.8-3.14 2.26-.73 2.66-1.13 3.4-3.4.66-2.13.93-2.26 3.13-1.8 2.33.47 2.93.34 4.6-1.2 1.73-1.53 2-1.53 3.73 0 .6.6 1.27 1.14 2.07 1.4 1.6.4 3.73-.8 4.67-.2.46.27.73 1.07 1 1.87.73 2.2 1.13 2.67 3.4 3.4 2.13.67 2.26.93 1.8 3.13-.47 2.34-.34 2.94 1.2 4.6 1.53 1.67 1.53 2 0 3.67-1.54 1.67-1.74 2.27-1.2 4.6.33 1.67.33 2.13-.54 2.6a36.34 36.34 0 0 0-5.06-2c1.53-2 2.4-4.47 2.4-7 0-6.33-5.2-11.53-11.54-11.53-6.33 0-11.53 5.2-11.53 11.53 0 2.6.87 5 2.4 7-1.73.53-3.47 1.2-5.13 2-.4-.13-.6-.33-.67-.47Zm7.13-1.93a10.18 10.18 0 0 1-2.46-6.67c0-5.6 4.6-10.2 10.2-10.2s10.2 4.6 10.2 10.2c0 2.47-.87 4.8-2.47 6.67a31.95 31.95 0 0 0-15.47 0Zm24.14 5.2-2.54 3.87a26.24 26.24 0 0 0-27.86 0c-2.2-3.27-1.27-1.94-2.54-3.87a30.64 30.64 0 0 1 32.94 0ZM6.6 42.6l-.07-2.27c0-.26-.13-.46-.4-.6l-2.13-1 3.6-2.4c2 3.07 1.47 2.2 2.53 3.87L6.6 42.6Zm23.87-5.93c-2.34-.47-2.87-.34-4.6 1.2-1.67 1.53-2 1.53-3.74 0-1.66-1.54-2.26-1.74-4.6-1.2-.8.2-1.8.46-2.33-.14a25 25 0 0 1 17.6 0c-.53.6-1.53.34-2.33.14Zm11.4 3.06c-.2.14-.4.34-.4.6l-.07 2.27-3.6-2.4c.93-1.4.47-.67 2.53-3.87l3.6 2.4-2.06 1Z"/>
  <path fill="#26B373" d="M28 17.73a.64.64 0 0 0-.93 0L22.8 22l-1.93-1.93a.64.64 0 0 0-.94 0 .64.64 0 0 0 0 .93l2.4 2.4c.27.27.67.27.94 0L28 18.67a.64.64 0 0 0 0-.94Z"/>
</svg>
