<svg xmlns="http://www.w3.org/2000/svg" fill="none" viewBox="0 0 48 48">
  <path fill="#26B373" d="M42 37.1a5.8 5.8 0 0 0-1.4-3.2 6 6 0 0 0-3-1.8l-8.7-2.3v-3.3a8.8 8.8 0 0 0 3.5-5.3H35c.6 0 1.2-.2 1.6-.6.4-.4.7-1 .7-1.6v-2.4a2.2 2.2 0 0 0-1.3-2v-1.3C36.2 9.1 34.7 2 24 2S11.8 9.1 11.8 13.3l.1 1.3-1 .8-.3 1.2V19a2.3 2.3 0 0 0 2.3 2.2h2.7c.3 2 1.8 4 3.5 5.3v3.3L10.5 32a6 6 0 0 0-3 1.8C6.5 35 6 36 6 37.1l-1 8.1c0 .2 0 .4.2.5a.7.7 0 0 0 1 .1l.2-.4 1-8.1c.1-1 .5-1.8 1.1-2.5.6-.7 1.5-1.1 2.4-1.4l4.3-1.1 4 5.8a.7.7 0 0 0 .6.3l.4-.1 3.1-2.5v4.7c0 .2 0 .3.2.5a.7.7 0 0 0 1 0l.2-.5v-4.7l3 2.5a.7.7 0 0 0 1.1-.2l4-5.9 4.4 1.2c.9.3 1.7.7 2.3 1.4.6.7 1 1.6 1.1 2.5l1 8c0 .3.1.4.2.5a.7.7 0 0 0 1 0c.2-.2.2-.4.2-.6l-1-8.1ZM15.6 14.4h-.2c.2-6.1 2.8-9 8.4-9 5.2 0 8 2.6 8.4 8a3.4 3.4 0 0 0-3.3-2.5c-1 0-2 .2-2.8.7-.7.3-1.4.5-2.1.5-.7 0-1.4-.2-2-.5a7 7 0 0 0-2.9-.7c-2.4 0-3.3 2-3.5 3.5ZM36 19c0 .2-.1.4-.3.5-.1.2-.4.3-.6.3h-2.7v-4.1h2.7c.2 0 .5 0 .6.2.2.1.3.4.3.6V19ZM24 3.4c8.9 0 10.8 5.4 10.8 10l-.1 1h-1c-.3-7-3.5-10.3-10-10.3-6.3 0-9.5 3.3-9.7 10.3h-.7v-1c0-4.6 1.8-10 10.7-10ZM12 19v-2.5c0-.2.1-.5.3-.6.1-.2.4-.3.6-.3h2.7V20h-2.7c-.2 0-.5-.1-.6-.3a.8.8 0 0 1-.3-.6Zm5 1.4v-5.4c0-.2 0-2.8 2.1-2.8.8 0 1.6.2 2.3.5.8.4 1.7.7 2.6.7 1 0 1.8-.3 2.6-.7.7-.3 1.5-.5 2.3-.5 2.1 0 2.1 2.6 2.1 2.8v5l-3.3 1.2a2.1 2.1 0 0 0-2.6-.4 2 2 0 0 0-1 1 2 2 0 0 0 0 1.5c.2.4.6.8 1 1a2.1 2.1 0 0 0 2.6-.5c.4-.3.5-.8.5-1.3l2.7-1c-1 3.2-5.4 5.8-6.9 5.8-1.6 0-7-3.2-7-6.9Zm9.8 2.1-.1.4a.7.7 0 0 1-.7.3c-.2 0-.3 0-.4-.2a.7.7 0 0 1-.1-.7c0-.2.1-.3.2-.3a.7.7 0 0 1 1 0l.1.5ZM24 28.8c1.3-.1 2.5-.6 3.5-1.3v2.4L24 33.3 20.5 30v-2.4c1 .7 2.2 1.2 3.5 1.3Zm-4 8-3.4-5 3-.8 3.4 3.3-3 2.4Zm8 0-3-2.5 3.4-3.3 3 .9-3.3 4.8Z"/>
  <path fill="#26B373" d="M24 43c-.3 0-.5 0-.7.2-.2 0-.3.2-.3.4v1.8c0 .2.1.3.3.4l.7.2c.3 0 .5 0 .7-.2.2 0 .3-.2.3-.4v-1.8c0-.2-.1-.3-.3-.4L24 43Z"/>
</svg>
