<svg xmlns="http://www.w3.org/2000/svg" fill="none" viewBox="0 0 48 48">
  <path fill="#26B373" d="M15.2 31.2H.8c-.4 0-.8.4-.8.8v11.2c0 .4.4.8.8.8h14.4c.4 0 .8-.4.8-.8V32c0-.4-.4-.8-.8-.8Zm-.8 11.2H1.6v-9.6h12.8v9.6ZM47.2 24.8h-24c-.4 0-.8.4-.8.8v17.6c0 .4.4.8.8.8h24c.4 0 .8-.4.8-.8V25.6c0-.4-.4-.8-.8-.8Zm-.8 17.6H24v-16h22.4v16ZM20.8 4H8c-.4 0-.8.4-.8.8v9.6c0 .4.4.8.8.8h12.8c.4 0 .8-.4.8-.8V4.8c0-.4-.4-.8-.8-.8Zm-.8 9.6H8.8v-8H20v8Z"/>
  <path fill="#26B373" d="M43.2 15.2h-16c-.4 0-.8.4-.8.8v9.6c0 .4.4.8.8.8h16c.4 0 .8-.4.8-.8V16c0-.4-.4-.8-.8-.8Zm-.8 9.6H28v-8h14.4v8ZM23.2 13.6H5.6c-.4 0-.8.4-.8.8V32c0 .4.4.8.8.8h8.8v10.4c0 .4.4.8.8.8h8c.4 0 .8-.4.8-.8V14.4c0-.4-.4-.8-.8-.8Zm-.8 28.8H16V32c0-.4-.4-.8-.8-.8H6.4v-16h16v27.2ZM41.6 28.8h-4.8c-.4 0-.8.4-.8.8V32a3.2 3.2 0 0 0 6.4 0v-2.4c0-.4-.4-.8-.8-.8Zm-.8 3.2a1.6 1.6 0 0 1-3.2 0v-1.6h3.2V32Z"/>
  <path fill="#26B373" d="M39.2 33.6c-.4 0-.8.4-.8.8v4.8a.8.8 0 0 0 1.6 0v-4.8c0-.4-.4-.8-.8-.8Z"/>
  <path fill="#26B373" d="M41.6 38.4h-4.8a.8.8 0 0 0 0 1.6h4.8a.8.8 0 0 0 0-1.6ZM31.2 28.8A3.2 3.2 0 0 0 28 32v1.6c0 .4.4.8.8.8h4.8c.4 0 .8-.4.8-.8V32c0-1.8-1.4-3.2-3.2-3.2Zm1.6 4h-3.2V32a1.6 1.6 0 0 1 3.2 0v.8Z"/>
  <path fill="#26B373" d="M31.2 32.8c-.4 0-.8.4-.8.8v4c0 .4-.4.8-.8.8a.8.8 0 0 0 0 1.6c1.3 0 2.4-1 2.4-2.4v-4c0-.4-.4-.8-.8-.8ZM16.8 4H12c-.4 0-.8.4-.8.8v4.8c0 .4.4.8.8.8h4.8c.4 0 .8-.4.8-.8V4.8c0-.4-.4-.8-.8-.8ZM16 8.8h-3.2V5.6H16v3.2ZM41.6 5.6H28.8c-.4 0-.8.4-.8.8V16c0 .4.4.8.8.8h12.8c.4 0 .8-.4.8-.8V6.4c0-.4-.4-.8-.8-.8Zm-.8 9.6H29.6v-8h11.2v8Z"/>
  <path fill="#26B373" d="M37.6 5.6h-4.8c-.4 0-.8.4-.8.8v4.8c0 .4.4.8.8.8h4.8c.4 0 .8-.4.8-.8V6.4c0-.4-.4-.8-.8-.8Zm-.8 4.8h-3.2V7.2h3.2v3.2ZM18.4 13.6h-8c-.4 0-.8.4-.8.8v6.4a.8.8 0 0 0 1.1.7l3.7-1.4 3.7 1.4a.8.8 0 0 0 .7 0c.3-.2.4-.4.4-.7v-6.4c0-.4-.4-.8-.8-.8Zm-.8 6-2.9-1.1a.8.8 0 0 0-.6 0l-2.9 1.1v-4.4h6.4v4.4ZM40 21.6h-9.6a.8.8 0 0 0 0 1.6H40a.8.8 0 0 0 0-1.6Z"/>
  <path fill="#26B373" d="M35.2 18.4c-.4 0-.8.4-.8.8v3.2a.8.8 0 0 0 1.6 0v-3.2c0-.4-.4-.8-.8-.8ZM6.4 39.2H4.8v-1.6a.8.8 0 0 0-1.6 0V40c0 .4.4.8.8.8h2.4a.8.8 0 0 0 0-1.6ZM12 36.8c-.4 0-.8.4-.8.8v1.6H9.6a.8.8 0 0 0 0 1.6H12c.4 0 .8-.4.8-.8v-2.4c0-.4-.4-.8-.8-.8Z"/>
</svg>
