<svg xmlns="http://www.w3.org/2000/svg" fill="none" viewBox="0 0 152 36">
  <path fill="#949497" fill-rule="evenodd" d="M72.7 31.8v1.4H96v-2.9H72.6v1.5ZM80 16.8h-4.4c-3.5 0-3.5 0-4.4 1a4.8 4.8 0 0 0-.8 5.6c.3.5 1.4 1.7 1.6 1.7l.6.1 5 .1c5.3 0 5 0 6-.9.4-.3.6-.7.9-1.2.7-1.5.7-2.8 0-4.3a3.8 3.8 0 0 0-2-2l-2.6-.1Zm8.6 0c-1.2 0-1.5.1-1.6.6-.2.4 0 .8.3 1a56.5 56.5 0 0 1 .5.4l5.8-.1h5.7l.2.2c.3.3.2.8 0 1-.2.2-.4.2-4.3.2h-5.7c-1 0-1.4.2-2 .7-.5.5-.6 1-.6 2.3 0 1.5 0 1.9.5 2l.3.3c0 .1 0 .1 0 0l.4-.2c.5-.3.6-.5.6-1.6 0-1 0-1.3.3-1.5h5.5c1.6.4 3 1.1 5 2.6.8.6 1 .7 1.3.5.4 0 .6-.4.7-.8 0-.3 0-.4-.5-.8a15.4 15.4 0 0 0-1.9-1.5c-.2-.1-.2-.1.1-.1l.7-.2a2.6 2.6 0 0 0 1.5-2.9l-.1-.6c0-.2-.9-1-1.2-1.2-.3-.2-.7-.2-3.8-.3h-7.6Zm-22.5 0h-5c-6 0-5.7 0-6.7.9l-.9 1c-.5 1.1-.5 1.6-.5 3.9 0 2 0 2 .2 2.3.3.4.6.4 1 .3.5-.2.5-.4.6-2.8 0-2.1 0-2.3.2-2.7.3-.5.7-.8 1.3-1h11.1c.9-.4.6-.9.5-1.3-.1-.4-.4-.5-1-.5l-.4-.1h-.4Zm39.7.2a4 4 0 0 0-2 1.9 5 5 0 0 0 .9 5.5c.8 1 .4.9 7.2.9h6l.2-.3c.2-.3.3-.4.2-.7l-.2-.6-.3-.2h-5.7c-5.6-.1-5.6-.1-6-.3-.7-.5-1-1.1-1-2.2 0-1 .4-1.7 1.1-2 .4-.3.4-.3 6-.3l5.7-.1c.5-.3.6-1 .1-1.5l-.2-.2h-12Zm15.9 0a2.6 2.6 0 0 0-1.2 3.5c.2.5 1 1.3 1.2 1.3l.8.1 5.7.1c4.9 0 5.2 0 5.3.2l.2.5c0 .2 0 .3-.2.5l-.2.2h-5.8l-6.1.1c-.4.1-.6.5-.6.9s.4.8.8.9h6.1c6 0 6 0 6.4-.2a2.6 2.6 0 0 0 1.2-3.2c0-.5-.2-.7-.6-1-.8-.8-.6-.8-6.8-.8h-5.5l-.2-.2c-.3-.3-.2-.8 0-1 .2-.2.4-.2 6.1-.2l6.2-.1c.5-.3.6-1 .1-1.5l-.2-.2h-6.1c-6.2 0-6.2 0-6.6.2Zm16 .1c-.5.5-.3 1.3.2 1.5h3.3l3.1.1-.1.3c-.3.6-.4 1.5-.4 3.6 0 2.2 0 2.3.5 2.6h.7c.5-.2.6-.5.6-2.7l.1-2.3c.1-.6.5-1 1-1.3.3-.2.4-.2 2.5-.2h2.2l.3-.3.3-.5a1 1 0 0 0-.5-1 95 95 0 0 0-6.9 0H138l-.3.2Zm-36.5 1v.1Zm-19 .9c.5.2.7.5.6.6.2 0 .4.7.4 1.4 0 .8-.1 1.3-.5 1.7-.6.7-.5.7-5.2.7-4.2 0-4.9 0-4.9-.3-.2 0-.7-.5-.8-1-.2-.4-.2-1.7 0-2.2.2-.5.8-1 1.2-1.1l4.6-.1h4.2l.4.3ZM57 20c-.3 0-.7.4-.8.7 0 .4.1.8.4 1a125.9 125.9 0 0 0 10.1.2c.9-.1 1.3-1.3.4-1.9H56.9Zm49.9.3c-.5.5-.3 1.3.4 1.5l5 .1h4.8l.3-.3c.4-.4.4-1 0-1.3l-.3-.3h-10l-.2.3Zm14.8 1.3ZM72 25h-.1v-.1ZM128.7 31.7v1.5H152v-2.9H128.7v1.4Z" clip-rule="evenodd"/>
  <path fill="#949497" fill-rule="evenodd" d="m88.7 26.3.3.4.2.3.4-.3c1-.7 1.2-1 2.3-3.5l.1-.5.1-.2h-2.7l-.7 3.8Zm1.2-2.4.2-.8v-.3c-.2 0-.2 0-.4 1.1s-.2 1.4 0 1c0-.4.1-.3 0 .1 0 .2-.2.3-.2.3s-.1 0 0 0c0 .1 0 .3-.2.4-.2.2-.2.6 0 .7l.5-.3c.6-.5.9-1 1.2-2.3l.2-1h-.9l-.1.5-.4 1.2v-.6Z" clip-rule="evenodd"/>
  <path fill="#949497" d="M90 19.4v.6c.2 0 .3 0 .3-.3 0-.4.2-.4.2 0 0 .3 0 .3.2.3s.3-.1.3-.4c0-.2 0-.2.4-.2h.5v.3l-.1.3h.6c.6 0 .6 0 .7-.3l.1-.3V19H90v.5Z"/>
  <path fill="#949497" fill-rule="evenodd" d="M78.3 19.7a6 6 0 0 0 0 1.8c0 .9.3 1.2.8 1 .2-.2 1-1.3 1.5-2.3l.4-.7.3-.5h-2.9v.7Zm.7 1.1.4-1.2-.3-.1c-.4 0-.4 0-.5 1.2 0 1.4 0 1.4.4.1ZM56.3 22.4v1c-.1 2.8 0 3.7.8 5.2.5 1 1.5 2.5 2 2.8.6.4 1 .4 1.2 0 .3-.5.3-.7-.1-1.3-.5-.7-.6-1.7-.6-3.6l.1-2.7.3-1.3-3.7-.1Zm3 1.3.2-.9h-2v3.9c.3 1.3.7 2.4 1.5 3.6.7 1 .8 1.1 1 1 .2-.3.1-.6-.2-1.1-.5-.8-.6-1.5-.6-3.7 0-1.4 0-2.2.2-2.8Z" clip-rule="evenodd"/>
  <path fill="#949497" fill-rule="evenodd" d="m77.7.3-.8.6-.2.3L76 1l-.7-.3L72 2.1 69 3.6l-2.2 2c-1.9 1.7-2.2 2-2.4 2.4-.1.4-.2.5-.4.4 0 0-.4 0-.7-.2-.9-.2-1.4 0-2 .6-.6.5-1.2 1.6-1.8 2.9a217.7 217.7 0 0 1-2 5c.3 0 .4-.2 2.1-4.3 1.4-3.2 2.1-4 3.4-3.8.6 0 1.3.3 1.2.4H64c-1.4-.6-2.2-.3-3 1.2l-2.6 6-.2.6h1.1l.6-1.3a41 41 0 0 1 1.7-3.4l-.2-1c0-.6.3-1.3.7-1.7l.3-.2.4.2c.5.3.5.3.8.1.3-.1.3-.1.7.1l.4.3 1.6-.8 1.8-.7 1 .3.9.3.2-.3c.7-.9 1.2-1.2 2.3-1.8a5.7 5.7 0 0 0 1.4-.9c.2 0 1.1.5 1 .6L73 11.8l-.2.4-.4.1-.8.3c-.4.2-.5.3-1.2 1.4a64.6 64.6 0 0 0-2.1 3.7c-.1 0 0 .3 0 .4 0 .2 0 .4-.2.5l-.9.3-.6.6v.4c.2 0 .2.1.3-.1 0-.3 0-.3.4-.3h.3c-.1.4 0 .6.2.9.4.5 0 1.7-.8 1.9l-1.4.6v.7c-.5 2-.5 4.8-.2 6.6.5 2.7 1.7 4.6 3.2 5 .3.2.3.1.5 0 .2-.2.2-.5 0-1.3-.3-1.1-.4-2.5-.3-4.2 0-2.4.2-3.3 1-5.6v-.8l-.2-.9c-.4-1.6.3-3.9 1.4-5 .6-.5 1.7-.9 2.1-.9h.3c.3-.4.3-.5.6-.5.5 0 1-.2 2.2-1a12 12 0 0 1 2.5-1.4l.6-.2v1.3l-.1 1.7c-.1.3 0 .4 0 .4.3 0 .4-.2.5-2 0-1.7.1-2 .4-1.4.2.5.2 1.5.1 2.5v.8h1l1.2.1.2-.5.8-4v-.6l.5-.1c.6-.3.8-.4 1.1-1l.4-.6c.3 0 2.3 2 2.9 2.8.6.8 1.2 2.4 1.5 3.7 0 .3.4.4.5.1 0-.2 0-.2 0 0 0 .1.1.2.5.2l.5-.1v-.6c0-1.2-.5-3-1.4-5.8-.5-1.3-.5-1.3-1-1.8s-.9-1-.9-1.3c0-.3.5-1.4.7-1.6.3-.3.5-.3 1 .1 1.2.8 1.3 1 1 2-.3.7-.3.7-.2 1 .5 1.7 1.4 5.9 1.7 7.7v.4h1.6v-.9c.3-3.6-1.3-8.5-3.5-10.9-.7-.7-1-.9-2-.6-.4.2-.6.1-.7-.3 0-.3-.3-.4-.8-.3-.4 0-.5 0-.6-.3 0-.2-.7-.4-1-.4-.5 0-2-.5-2.2-.8 0-.3-.4-.5-1-.5-.3 0-.4 0-.5-.3-.1-.2-.2-.3-.6-.3-.4 0-.5 0-.9-.3-1-1-1.5-1.1-2.2-.6Zm2 .8-1-.7h-.3l-1 .7-.5.4 1.7.8 3 1.4 1.3.6.8-.4.7-.4-1-.4c-.7-.3-1-.4-.9-.5.1-.3-.1-.4-.7-.4-.5 0-.6 0-.7-.4 0-.2-.1-.2-.4-.2-.4 0-.5 0-1-.5Zm-3.4 3c.1-.4 0-.7-.5-1-.4-.2-1.2-.3-1.4-.2-.3.1-.5.3-.5.6 0 .5.6.9 1.4.9.6 0 .8-.1 1-.4Zm10 .1L86 4a1 1 0 0 0-.2-.3l-1.2.9c-.3.4-.3.4 0 .5 0 0 .3 0 1-.4.7-.3 1-.5.8-.5Zm1.5.7-.4-.2-.3-.2s-1 .5-1 .7c-.3.2-.3.4.2.9.6.8.4 1-.6 1.2a2 2 0 0 0-.8.2l-.2 1c0 .7 0 .8.2 1h.4l.2.2c.2.2.2 0 .1-.3-.1-.6 0-1 1.3-2.8.9-1.3 1-1.7 1-1.7ZM71.3 15.2c.7 0 1-.9.6-1.4-.4-.4-.9-.4-1.2.2-.3.6 0 1.2.6 1.2ZM66 29c0-2.4.1-4.3.4-5.4v-.7c-.4 0-.4 0-.5 1a19.8 19.8 0 0 0 0 7.1v-2Zm0 2.3h.1V31Z" clip-rule="evenodd"/>
  <path fill="#949497" fill-rule="evenodd" d="M61.6 16.6c.5-.8.7-1 1.8-1.3.9-.3 1.7-.2 2.3.3l.8 1c0 .3-.4.1-.9-.4-.4-.5-.6-.6-1-.7-.7-.1-2.1.4-2.4 1-.2.2-.3.3-.5.3-.1 0-.2 0-.1-.2ZM6.2 17l.6-.4.9-.1c.7 0 1.3.3 1.8.8l4.8 6.8c0 .4-.1.9-.5 1-.6.4-.7.3-3.3-3.2A60.2 60.2 0 0 0 8 18.5c-.3-.2-.6-.1-.9.2L4.7 22c-2.5 3.4-2.6 3.5-3.2 3.2-.4-.3-.6-.8-.4-1.2.2-.5 4.7-6.7 5-7Zm9.6 3.4c.2-1.6 1.2-3 2.4-3.4a49.3 49.3 0 0 1 7.1-.1c4.5 0 5.2 0 5.4.3l.1.2v1c-.3.3-1 .3-5.6.3h-.4a65 65 0 0 0-5.9 0 2 2 0 0 0-1.3 1.4v2c.2.4.6.9 1 1.1.4.2.6.2 5.3.2l5-.1c.4-.4.4-.8 0-1.1l-.1-.2H25l-4-.1c-.6-.3-.5-1.4.1-1.7h4c4.3 0 4.4 0 5 .6.6.6.8 1.1.7 2.1 0 .9-.2 1.3-.8 1.8a22 22 0 0 1-.3.2c-.4.4-1.1.4-5.7.4h-.8c-4.3 0-5 0-5.6-.3l-.3-.3a4.9 4.9 0 0 1-1.6-4.3Zm17.6-1.8c-.6-.3-.7-1-.3-1.5l.3-.2h12.3c1 .4 1.7 1.4 1.7 2.5 0 1.3-.8 2.3-2 2.5l-.6.1.5.3c1.2.8 2.1 1.7 2.1 2 0 .2-.2.7-.4.8-.5.3-.8.2-2-.7-2-1.4-3.6-2.2-5.3-2.4h-4.6l-.3.2c-.2.3-.2.3-.2 1.4 0 1 0 1-.3 1.4-.2.2-.3.2-.6.2s-.4 0-.6-.2c-.3-.3-.3-.3-.3-1.6l.1-1.7c.2-.4.7-1 1.1-1.3l.4-.2h5.4c3.6 0 5.4-.1 5.5-.2.2 0 .4-.4.4-.7l-.3-.4-.2-.2h-5.8l-6-.1Zm15.9-1.2.3-.3c.5-.4 1.2-.3 1.4.3v7.4c-.5.8-1.6.5-1.7-.4v-7ZM6.8 23.9c-.4-.5-.3-1.4.3-1.7.4-.2 1-.2 1.2 0 .8.7.5 2-.4 2.2-.4 0-1-.2-1.1-.5Zm93.4 7.8c0-.6.2-1 .9-1.1h2l-.2.2c-.3.3-.3.3-1 .3-.6 0-.7.1-.9.3-.3.2-.3.5 0 .8l1 .1 1 .1-.2.3c-.2.3-.3.3-.9.3-1.2 0-1.7-.4-1.7-1.3Zm3.1.4c-.1-.7.1-1.2.7-1.5.8-.2 2 0 2.3.3.3.3.4 1 .2 1.4-.3.5-.7.7-1.4.7-1.2 0-1.6-.3-1.8-.9Zm3.8-1s0-.2.2-.3c.1-.3.2-.3.9-.3 1 0 1.4.1 1.7.4.3.4.2.8-.2 1.1l-.2.2.3.4.4.4h-.5c-.4 0-.4 0-.7-.3-.2-.4-.2-.4-.8-.4h-.6v.4c0 .3 0 .3-.3.3h-.3v-1.2h1c1 0 1.4-.1 1.3-.4 0-.2 0-.2-1.1-.2L107 31Zm3.4.7a7 7 0 0 1 0-1.2c.3-.2.6 0 1.3.7l.7.7v-1.5h.7v2.3c-.2.3-.6.2-1.3-.5l-.8-.7V33h-.6v-1.1Zm3 1.1s1.3-2.2 1.5-2.3h.6A24 24 0 0 1 117 33h-2.6l.2-.2c.2-.3.3-.4.7-.4h.5l-.3-.4-.3-.5-.6.8c-.5.8-.5.8-.9.8h-.4Zm3.7-.7c-.4-.6 0-1.4.7-1.6h2.2l-.3.2c-.3.3-.3.4-1 .4-.8 0-1 0-1 .5s.1.6.9.6l.6-.1c0-.2 0-.2-.6-.2h-.6l.2-.3c.3-.3.3-.3 1-.3h.6V33h-1c-1.2 0-1.4-.2-1.7-.8Zm3.2.8v-2.5h.6v1.8h.9l.8.1s0 .2-.2.3c-.1.3-.2.3-1.1.3h-1Zm2.7 0v-2.5h.6V33h-.6Zm1.7-1.1.8-1.2c.2-.2.5-.2.8 0l1.4 2.2h-2.5l.2-.2c.1-.3.2-.3.6-.3h.6l-.4-.6-.3-.5-.6.9c-.3.5-.4.7-.6.7h-.7l.7-1Zm-28.1.6v-.8c0-.8 0-.8.2-.8.1 0 .2 0 .2.2 0 .3 0 .3.2.3.4-.1.5 0 .5.5s-.1.6-.7.6h-.4ZM66 31.2V31Zm39.9.6c0-.4-.2-.6-.5-.7h-.4c-.3 0-.7 0-.9.2-.2.2-.2.7 0 .9.1.2.2.2.8.2.8 0 1-.1 1-.6Zm-7.7.1-.2-.5h.1s.2 0 .2.2l.2.4.1-.3.3-.4c.2 0 .2 0-.1.9l-.4.8c-.2 0-.2 0-.1-.3l-.1-.8Zm-1 .4s.3-.2.3-.4c0-.1-.2-.4-.3-.3-.2 0-.2.6 0 .7Z" clip-rule="evenodd"/>
</svg>
