<svg xmlns="http://www.w3.org/2000/svg" fill="none" viewBox="0 0 159 36">
  <path fill="#949497" d="M19.5 13.6a44.3 44.3 0 0 0-2.6 2.8 6.8 6.8 0 0 1-3.4 7.6 6.8 6.8 0 1 1 0-12A65.2 65.2 0 0 1 16 9.5a10.3 10.3 0 1 0 3.5 4.1Z"/>
  <path fill="#949497" d="M21.8 6s-2.8 2-6.4 5.5C11.8 15.1 9.9 18 9.9 18s1.3 2 3.7 4.7c1-.7 1.7-1.7 2-2.8L14.3 18s1.2-1.8 3.5-4.1c2.4-2.3 4.1-3.6 4.1-3.6l2 1.7c.7-1 1.4-1.9 2.3-2.6A42.3 42.3 0 0 0 21.8 6Z"/>
  <path fill="#949497" d="M43.7 18a10.3 10.3 0 0 1-16 8.5 58.2 58.2 0 0 0 2.5-2.5 6.8 6.8 0 0 0 10-6v-6.8h-6.8a6.8 6.8 0 0 0-6.6 8.4 42.5 42.5 0 0 1-2.7 2.8 10.3 10.3 0 0 1 9.3-14.7h10.3V18Z"/>
  <path fill="#949497" d="M30 13.3c-.9.7-1.6 1.7-2 2.8 1 1.1 1.5 1.9 1.5 1.9s-1.3 1.8-3.6 4c-2.3 2.4-4 3.7-4 3.7s-.9-.6-2-1.7c-.7 1-1.4 1.9-2.3 2.6 2.5 2.2 4.2 3.4 4.2 3.4s2.9-2 6.5-5.5a49 49 0 0 0 5.5-6.5s-1.3-2-3.8-4.7ZM79.4 13.2s3.4-1.2 6.2-1.2c3.6 0 5.5 1.7 5.5 5.4V24c0 .9-3.7.9-3.7.9v-7.6c0-1.6-.6-2.6-2-2.6-1.1 0-2.2.3-2.2.3v9c0 .9-3.8.9-3.8.9V13.2ZM126.6 24c0 .9-3.7.9-3.7.9V8.6c0-1 3.7-.9 3.7-.9V24ZM130.9 7.7c1.2 0 2 .9 2 2 0 1-.8 2-2 2-1.3 0-2.1-1-2.1-2 0-1.1.8-2 2-2ZM129 25v-11c0-.8 3.7-.8 3.7-.8V24c0 .9-3.7.9-3.7.9ZM152.6 24c0 .9-3.7.9-3.7.9V8.6c0-.9 3.7-.9 3.7-.9V24ZM157 7.7c1.2 0 2 .9 2 2 0 1-.8 2-2 2-1.3 0-2.1-1-2.1-2 0-1.1.8-2 2-2ZM155 25v-11c0-.8 3.8-.8 3.8-.8V24c0 .9-3.7.9-3.7.9ZM104.4 7.7c1.2 0 2 .9 2 2 0 1-.8 2-2 2-1.3 0-2.1-1-2.1-2 0-1.1.8-2 2-2ZM102.5 25v-11c0-.8 3.7-.8 3.7-.8V24c0 .9-3.7.9-3.7.9ZM114 12.1c-3.8.3-5.7 3.1-5.7 6.3v.2c0 3.6 2 6 5.1 6.2 1.6.1 3-.5 3.4-1.2v1c0 1.7-.9 2.6-2.3 2.8-1.6.2-3 .1-3 .1l-.6 2.4s1.7.2 4 0c4-.4 5.6-2.8 5.6-5.5V12.8s-3.4-.9-6.6-.7Zm2.8 7.6s0 .8-.2 1c-.2 1-1.2 1.4-2.2 1.4-1.6 0-2.4-1.6-2.4-3.4v-.5c0-1.6.7-3.2 2.3-3.5 1.5-.3 2.5 0 2.5 0v5ZM71.3 12c-4 0-6.4 2.5-6.4 6.6 0 4 2.4 6.5 6.4 6.5s6.4-2.5 6.4-6.5-2.4-6.6-6.4-6.6Zm0 10.5c-1.9 0-2.6-2-2.6-3.9 0-1.8.7-3.9 2.6-3.9 1.9 0 2.6 2 2.6 3.9 0 1.8-.7 3.9-2.6 3.9ZM140.8 12c-4 0-6.3 2.5-6.3 6.6 0 4 2.3 6.5 6.3 6.5s6.4-2.5 6.4-6.5-2.3-6.6-6.4-6.6Zm0 10.5c-1.8 0-2.6-2-2.6-3.9 0-1.8.8-3.9 2.6-3.9 2 0 2.7 2 2.7 3.9 0 1.8-.8 3.9-2.7 3.9ZM97.1 12.9c0-1.7.9-2.5 2.3-2.7h1.7l.3-2.5-2.5.1c-3.7.4-5.5 2-5.5 5.6v11.5s3.8 0 3.8-.9v-7.7h3.3v-2.5H97v-1ZM50.2 8.7c1.2-.4 3-.8 4.8-1 2.9-.1 4.3.3 5.5 1 1.2.8 2 1.8 2 3.4 0 1.5-.6 2.7-2.6 3.4 2 .6 3.5 2 3.5 4.3 0 1.6-.7 2.8-1.7 3.7-1.3 1-3.2 1.6-6.1 1.6-2.3 0-5.4-.8-5.4-.8V8.7Zm3.7 5.7h1.8c2 0 3-.7 3-2s-.8-2-2.6-2c-.9 0-1.7 0-2.2.3v3.7Zm0 7.5c.6.2 1.5.3 2.1.3 1.8 0 3.3-.8 3.3-2.5 0-1.8-1.6-2.5-3.5-2.5h-1.9V22Z"/>
  <path fill="#949497" d="M79.4 13.2s3.4-1.2 6.2-1.2c3.6 0 5.5 1.7 5.5 5.4V24c0 .9-3.7.9-3.7.9v-7.6c0-1.6-.6-2.6-2-2.6-1.1 0-2.2.3-2.2.3v9c0 .9-3.8.9-3.8.9V13.2ZM126.6 24c0 .9-3.7.9-3.7.9V8.6c0-1 3.7-.9 3.7-.9V24ZM130.9 7.7c1.2 0 2 .9 2 2 0 1-.8 2-2 2-1.3 0-2.1-1-2.1-2 0-1.1.8-2 2-2ZM129 25v-11c0-.8 3.7-.8 3.7-.8V24c0 .9-3.7.9-3.7.9ZM152.6 24c0 .9-3.7.9-3.7.9V8.6c0-.9 3.7-.9 3.7-.9V24ZM157 7.7c1.2 0 2 .9 2 2 0 1-.8 2-2 2-1.3 0-2.1-1-2.1-2 0-1.1.8-2 2-2ZM155 25v-11c0-.8 3.8-.8 3.8-.8V24c0 .9-3.7.9-3.7.9ZM104.4 7.7c1.2 0 2 .9 2 2 0 1-.8 2-2 2-1.3 0-2.1-1-2.1-2 0-1.1.8-2 2-2ZM102.5 25v-11c0-.8 3.7-.8 3.7-.8V24c0 .9-3.7.9-3.7.9ZM114 12.1c-3.8.3-5.7 3.1-5.7 6.3v.2c0 3.6 2 6 5.1 6.2 1.6.1 3-.5 3.4-1.2v1c0 1.7-.9 2.6-2.3 2.8-1.6.2-3 .1-3 .1l-.6 2.4s1.7.2 4 0c4-.4 5.6-2.8 5.6-5.5V12.8s-3.4-.9-6.6-.7Zm2.8 7.6s0 .8-.2 1c-.2 1-1.2 1.4-2.2 1.4-1.6 0-2.4-1.6-2.4-3.4v-.5c0-1.6.7-3.2 2.3-3.5 1.5-.3 2.5 0 2.5 0v5ZM71.3 12c-4 0-6.4 2.5-6.4 6.6 0 4 2.4 6.5 6.4 6.5s6.4-2.5 6.4-6.5-2.4-6.6-6.4-6.6Zm0 10.5c-1.9 0-2.6-2-2.6-3.9 0-1.8.7-3.9 2.6-3.9 1.9 0 2.6 2 2.6 3.9 0 1.8-.7 3.9-2.6 3.9ZM140.8 12c-4 0-6.3 2.5-6.3 6.6 0 4 2.3 6.5 6.3 6.5s6.4-2.5 6.4-6.5-2.3-6.6-6.4-6.6Zm0 10.5c-1.8 0-2.6-2-2.6-3.9 0-1.8.8-3.9 2.6-3.9 2 0 2.7 2 2.7 3.9 0 1.8-.8 3.9-2.7 3.9ZM96.6 14c0-1.7.8-2.5 2.2-2.6l1.8-.2.2-2.3h-2.5c-3.6.4-5.4 2-5.4 5.6V26s3.7 0 3.7-.9v-7.7h3.3v-2.5h-3.3V14Z"/>
</svg>
