<svg xmlns="http://www.w3.org/2000/svg" fill="none" viewBox="0 0 128 36">
  <path fill="#949497" fill-rule="evenodd" d="M13.4 31.8a13.4 13.4 0 1 0 0-26.8 13.4 13.4 0 0 0 0 26.8Zm0-1.3a12.1 12.1 0 1 0 0-24.2 12.1 12.1 0 0 0 0 24.2Z" clip-rule="evenodd"/>
  <path fill="#949497" d="M10.8 21.8h5.4l-2.7 5.8-2.7-5.8Z"/>
  <path fill="#949497" d="M6.8 8.9h1.7l.7 1.8v5l1 2h6.4l1-2v-5l.7-1.8H20v17.5l-1.2 1.9-1.3-2V20H9.2v6.5L8 28.3l-1.1-2V9Z"/>
  <path fill="#949497" d="M9.9 8.9h7.3L13.5 17 9.9 9ZM30.5 9.4h8.3l-3.6 11H38l2-11h7.8l-5.6 18.2h-6l1.3-4.3-2.2 1.2-.2-2.7h-.7l-1.1 5.8h-6.6l3.7-18.2Z"/>
  <path fill="#949497" fill-rule="evenodd" d="M51.4 9.4h7.1l-.7 18.2h-6.4l.3-1.8h-.8l-2.6 1.8-.2-2.4h-.6l-.8 2.4H43l8.4-18.2Zm.3 14.2-3.4.5 2.7-4.5.7 4Z" clip-rule="evenodd"/>
  <path fill="#949497" d="M62.5 9.4h6.8l1.3 5.8L75 9.4H81l-5.3 18.2h-4.2l1.4-5.5-5.4 5.5-3-5.8-1.5 5.8H59l3.6-18.2ZM81.8 9.4h6.8l1.3 5.8 4.6-5.8h5.8L95 27.6h-4.2l1.5-5.5-5.4 5.5-3-5.8-1.6 5.8h-4l3.5-18.2ZM100.9 9.4l-4 18.2h10.2l1.8-3.7-4.7.6.8-3h3.6l1.3-2.8h-4.1l.7-2.2 4 .3 2.3-7.4H101Z"/>
  <path fill="#949497" fill-rule="evenodd" d="M113.7 9.4h6.3c2.6 0 7.6.9 7.4 4.7-.1 4-3.8 7-5.7 8l2.5 3.9-5.1 2.5-1.7-5.2-1 4H110l3.8-17.9Zm8.1 9c.1-1.6-1.6-2-2.5-2L118 21c1.3-.3 3.7-1.1 3.8-2.7Z" clip-rule="evenodd"/>
</svg>
