<svg xmlns="http://www.w3.org/2000/svg" fill="none" viewBox="0 0 56 36">
  <path fill="#949497" fill-rule="evenodd" d="M26.3 1a17 17 0 0 0-10.5 5c-1.1 1.1-1.3 1.3-1.3 1.8l.1.5c.3.5 1 .7 1.4.4.2 0 .5-.3.8-.6a15.5 15.5 0 0 1 6.4-4.2 15.1 15.1 0 0 1 15.3 3.8c1.1 1 1.1 1 1.5 1.1l.7-.1c.3-.2.5-.6.5-.9 0-.3-.4-1-1.3-1.8a16.9 16.9 0 0 0-13.6-5ZM13.5 11l-3 12.9h4.9l1.5-6.3 1.6-6.6v-.2H16c-2.5 0-2.5 0-2.5.2Zm6.5 0L19 15l1.6.1 1.6.1a219 219 0 0 1-2 8.6h5.1l.9-4 1-4.3v-.4h3.3V15c.3-.7 1-3.9 1-4l-5.8-.1H20v.2Zm13.1-.1a1062.3 1062.3 0 0 0-3 13h4.8l.5-2.1.6-2.2 1.2 2.2 1 2.1H44l-1.6-2.6-1.6-2.6h.4c.7 0 1.5-.2 1.8-.4 1.1-.6 1.6-1.9 1.7-4.3 0-1.5-.2-2-.7-2.5-.6-.7-.5-.7-6-.7l-4.9.1Zm-30.4.7c-.5.4-.4 1.1.1 1.4H10.5c.6-.2.7-1 .2-1.3-.2-.2-.3-.2-4-.2l-4 .1Zm44.9.2c-.5.4-.2 1.1.4 1.2h7.5l.3-.2.2-.6c0-.2-.2-.4-.3-.5-.2-.2-.2-.2-4-.2h-4l-.1.3ZM2.2 14.2c-.4.1-.5.8-.2 1.2l.3.2H6c3.8 0 3.8 0 4-.2.4-.2.4-.7 0-1L10 14H2.2Zm45 0c-.4.1-.6.8-.2 1.2l.2.2h3.9c4.2 0 4 0 4.2-.5.2-.3 0-.6-.2-.8-.2-.2-.3-.2-4-.2h-3.9Zm-7.2.2c.4.2.5.6.4 1.2-.2.7-.5 1-1 1.3a9 9 0 0 1-2.8 0 28.6 28.6 0 0 1 .5-2.6 15.8 15.8 0 0 1 3 0ZM1.6 16.8c-.3.1-.4.3-.4.7 0 .3 0 .4.3.5l.2.2H9.4c.5-.3.5-1 .1-1.3l-.2-.2H1.5Zm45 0c-.5.3-.6.9-.1 1.2l.2.2h7.6l.2-.2c.2-.1.3-.2.3-.5s0-.4-.3-.6l-.2-.2h-3.8l-4 .1ZM.7 19.5c-.3.3-.3.8 0 1.1l.3.2H8.8l.2-.2c.3-.3.3-.8 0-1l-.2-.3H4.9c-3.8 0-3.8 0-4 .2Zm45 0c-.3.3-.3.8 0 1l.2.3h3.8c3.9 0 4 0 4.3-.3.2-.3.1-.7-.1-1l-.3-.2H50c-3.9 0-3.9 0-4 .2ZM.4 22c-.5.2-.5 1-.1 1.2.2.2.3.2 4 .2h3.9l.2-.2c.4-.4.3-1-.2-1.2-.3-.2-7.5-.2-7.8 0Zm45 0c-.5.2-.5 1-.1 1.2.2.2.3.2 4 .2h3.9l.2-.3c.2-.2.3-.5 0-.8-.1-.5-.2-.5-4.1-.5-3 0-3.8 0-4 .2Zm-30.5 4a1 1 0 0 0-.6 1.2 17 17 0 0 0 27 .4c.4-.9-.4-1.9-1.3-1.6-.3 0-.5.3-1 .8a14.9 14.9 0 0 1-22.3 0c-.9-.9-1.2-1-1.8-.7Z" clip-rule="evenodd"/>
</svg>
